<svg width="41" height="41" viewBox="0 0 41 41" fill="none" xmlns="http://www.w3.org/2000/svg">
<path d="M38.4375 19.2187H35.8099C35.503 15.601 33.9264 12.2083 31.3591 9.64093C28.7917 7.07357 25.399 5.49699 21.7812 5.19009V2.5625H19.2187V5.19009C15.601 5.49699 12.2083 7.07357 9.64093 9.64093C7.07357 12.2083 5.49699 15.601 5.19009 19.2187H2.5625V21.7812H5.19009C5.49699 25.399 7.07357 28.7917 9.64093 31.3591C12.2083 33.9264 15.601 35.503 19.2187 35.8099V38.4375H21.7812V35.8099C25.399 35.503 28.7917 33.9264 31.3591 31.3591C33.9264 28.7917 35.503 25.399 35.8099 21.7812H38.4375V19.2187ZM21.7812 33.2474V28.1875H19.2187V33.2474C16.2798 32.9478 13.5342 31.6435 11.4454 29.5546C9.35646 27.4657 8.05216 24.7202 7.75259 21.7812H12.8125V19.2187H7.75259C8.05216 16.2798 9.35646 13.5342 11.4454 11.4454C13.5342 9.35646 16.2798 8.05216 19.2187 7.75259V12.8125H21.7812V7.75259C24.7202 8.05216 27.4657 9.35646 29.5546 11.4454C31.6435 13.5342 32.9478 16.2798 33.2474 19.2187H28.1875V21.7812H33.2474C32.9478 24.7202 31.6435 27.4657 29.5546 29.5546C27.4657 31.6435 24.7202 32.9478 21.7812 33.2474Z" fill="white"/>
</svg>
