<svg width="42" height="42" viewBox="0 0 42 42" fill="none" xmlns="http://www.w3.org/2000/svg">
<path fill-rule="evenodd" clip-rule="evenodd" d="M10.5187 3.42067L7.83067 9.33333H3.5C2.57174 9.33333 1.6815 9.70208 1.02513 10.3585C0.368749 11.0148 0 11.9051 0 12.8333V17.2247L1.17367 17.8103C7.32956 20.8883 14.1175 22.4907 21 22.4907C27.8825 22.4907 34.6704 20.8883 40.8263 17.8103L42 17.2247V12.8333C42 11.9051 41.6312 11.0148 40.9749 10.3585C40.3185 9.70208 39.4283 9.33333 38.5 9.33333H34.1693L31.4813 3.42067C31.018 2.40077 30.2708 1.53585 29.3291 0.929261C28.3874 0.32267 27.2909 6.57537e-05 26.1707 0H15.8293C14.7091 6.57537e-05 13.6126 0.32267 12.6709 0.929261C11.7292 1.53585 10.982 2.40077 10.5187 3.42067ZM15.8293 4.66667C15.6054 4.66673 15.3863 4.73122 15.198 4.85245C15.0098 4.97368 14.8604 5.14651 14.7677 5.35033L12.957 9.33333H29.043L27.2323 5.35033C27.1396 5.14651 26.9902 4.97368 26.802 4.85245C26.6137 4.73122 26.3946 4.66673 26.1707 4.66667H15.8293Z" fill="white"/>
<path d="M42 22.4307C36.1481 25.2078 29.8034 26.7964 23.3333 27.1043V30.3337C23.3333 30.9525 23.0875 31.546 22.6499 31.9836C22.2123 32.4212 21.6188 32.667 21 32.667C20.3812 32.667 19.7877 32.4212 19.3501 31.9836C18.9125 31.546 18.6667 30.9525 18.6667 30.3337V27.1043C12.2733 26.7987 5.92667 25.2423 0 22.4307V38.5003C0 39.4286 0.368749 40.3188 1.02513 40.9752C1.6815 41.6316 2.57174 42.0003 3.5 42.0003H38.5C39.4283 42.0003 40.3185 41.6316 40.9749 40.9752C41.6312 40.3188 42 39.4286 42 38.5003V22.4307Z" fill="white"/>
</svg>
