<svg width="40" height="43" viewBox="0 0 40 43" fill="none" xmlns="http://www.w3.org/2000/svg">
<path d="M39.0773 17.1142L21.3463 0.801659C20.7698 0.271348 20.0108 -0.0156479 19.2277 0.000658691C18.4446 0.0169652 17.6981 0.335312 17.1443 0.889159L0.836875 17.1967L0 18.0334V42.0741H15.7143V27.0741H24.2857V42.0741H40V17.9632L39.0773 17.1142ZM19.2891 2.85719C19.3143 2.85719 19.2987 2.86264 19.2879 2.87327C19.2768 2.86264 19.2639 2.85719 19.2891 2.85719ZM37.1429 39.2169H27.1429V27.0741C27.1429 26.3163 26.8418 25.5896 26.306 25.0538C25.7702 24.5179 25.0435 24.2169 24.2857 24.2169H15.7143C14.9565 24.2169 14.2298 24.5179 13.694 25.0538C13.1582 25.5896 12.8571 26.3163 12.8571 27.0741V39.2169H2.85714V19.2169L19.2891 2.90943C19.2903 2.90835 19.2904 2.90737 19.2913 2.9063L37.1429 19.2169V39.2169Z" fill="white"/>
</svg>
