<svg width="35" height="35" viewBox="0 0 35 35" fill="none" xmlns="http://www.w3.org/2000/svg">
<path d="M22.1224 35H12.469C3.73266 35 0 31.2675 0 22.5316V12.8786C0 4.14264 3.73266 0.410156 12.469 0.410156H15.6868C16.3465 0.410156 16.8935 0.957158 16.8935 1.61678C16.8935 2.2764 16.3465 2.8234 15.6868 2.8234H12.469C5.05196 2.8234 2.41336 5.46188 2.41336 12.8786V22.5316C2.41336 29.9483 5.05196 32.5868 12.469 32.5868H22.1224C29.5395 32.5868 32.1781 29.9483 32.1781 22.5316V19.3139C32.1781 18.6543 32.7251 18.1073 33.3848 18.1073C34.0444 18.1073 34.5915 18.6543 34.5915 19.3139V22.5316C34.5915 31.2675 30.8588 35 22.1224 35Z" fill="#89875A"/>
<path d="M11.6633 26.8555C10.6818 26.8555 9.78084 26.5015 9.12119 25.858C8.33283 25.0697 7.99496 23.9274 8.17194 22.7208L8.86376 17.8782C8.99248 16.9451 9.60386 15.7385 10.2635 15.0788L22.9416 2.40118C26.1433 -0.800394 29.3933 -0.800394 32.595 2.40118C34.3487 4.15481 35.1371 5.94061 34.9762 7.72641C34.8314 9.17436 34.0591 10.5901 32.595 12.0381L19.9169 24.7157C19.2572 25.3753 18.0505 25.9867 17.1174 26.1154L12.2746 26.8072C12.0655 26.8555 11.8563 26.8555 11.6633 26.8555ZM24.647 4.10654L11.969 16.7842C11.6633 17.0899 11.3093 17.7978 11.2449 18.216L10.5531 23.0586C10.4888 23.5252 10.5853 23.9113 10.8266 24.1526C11.068 24.394 11.4541 24.4905 11.9207 24.4261L16.7634 23.7343C17.1817 23.67 17.9057 23.316 18.1953 23.0104L30.8735 10.3327C31.9193 9.28698 32.4663 8.35385 32.5468 7.48509C32.6433 6.43935 32.0963 5.32925 30.8735 4.09045C28.2993 1.51632 26.5295 2.2403 24.647 4.10654Z" fill="#89875A"/>
<path d="M29.9247 14.201C29.8121 14.201 29.6995 14.1849 29.603 14.1527C25.3715 12.9622 22.0089 9.59974 20.8183 5.36851C20.6414 4.72498 21.0114 4.06536 21.655 3.8723C22.2985 3.69533 22.9582 4.06536 23.1352 4.70889C24.1005 8.1357 26.8196 10.8546 30.2465 11.8199C30.8901 11.9969 31.2601 12.6726 31.0832 13.3161C30.9384 13.8631 30.4557 14.201 29.9247 14.201Z" fill="#89875A"/>
</svg>
