<svg width="35" height="35" viewBox="0 0 35 35" fill="none" xmlns="http://www.w3.org/2000/svg">
<path d="M17.692 19.9889C17.6595 19.9889 17.6106 19.9889 17.5781 19.9889C17.5292 19.9889 17.4641 19.9889 17.4153 19.9889C13.7204 19.875 10.9534 16.9941 10.9534 13.4459C10.9534 9.83267 13.8995 6.88672 17.513 6.88672C21.1264 6.88672 24.0725 9.83267 24.0725 13.4459C24.0562 17.0104 21.2729 19.875 17.7408 19.9889C17.7083 19.9889 17.7083 19.9889 17.692 19.9889ZM17.4967 9.31184C15.2179 9.31184 13.3786 11.1673 13.3786 13.4297C13.3786 15.6595 15.1203 17.4662 17.3339 17.5475C17.3827 17.5313 17.5455 17.5313 17.7083 17.5475C19.8894 17.4336 21.5984 15.6432 21.6147 13.4297C21.6147 11.1673 19.7754 9.31184 17.4967 9.31184Z" fill="#89875A"/>
<path d="M17.4977 35C13.1193 35 8.93612 33.3724 5.69704 30.4101C5.40406 30.1497 5.27384 29.7591 5.3064 29.3847C5.51799 27.4479 6.72248 25.6413 8.72452 24.3066C13.575 21.084 21.4367 21.084 26.2709 24.3066C28.2729 25.6575 29.4774 27.4479 29.689 29.3847C29.7378 29.7754 29.5913 30.1497 29.2984 30.4101C26.0593 33.3724 21.8761 35 17.4977 35ZM7.86185 29.0592C10.5638 31.3216 13.9656 32.5586 17.4977 32.5586C21.0298 32.5586 24.4316 31.3216 27.1335 29.0592C26.8406 28.0664 26.0593 27.1061 24.9036 26.3249C20.8995 23.6556 14.1121 23.6556 10.0755 26.3249C8.91984 27.1061 8.15483 28.0664 7.86185 29.0592Z" fill="#89875A"/>
<path d="M17.4975 34.9934C7.84541 34.9934 0 27.1484 0 17.4967C0 7.84504 7.84541 0 17.4975 0C27.1497 0 34.9951 7.84504 34.9951 17.4967C34.9951 27.1484 27.1497 34.9934 17.4975 34.9934ZM17.4975 2.4414C9.19638 2.4414 2.44152 9.19594 2.44152 17.4967C2.44152 25.7975 9.19638 32.552 17.4975 32.552C25.7987 32.552 32.5536 25.7975 32.5536 17.4967C32.5536 9.19594 25.7987 2.4414 17.4975 2.4414Z" fill="#89875A"/>
</svg>
