<svg width="22" height="18" viewBox="0 0 22 18" fill="none" xmlns="http://www.w3.org/2000/svg">
<path d="M19.25 4.5L18.6246 15.1321C18.5546 16.3214 17.5698 17.25 16.3785 17.25H5.62154C4.43022 17.25 3.44538 16.3214 3.37542 15.1321L2.75 4.5M8.75 8.625L11 10.875M11 10.875L13.25 13.125M11 10.875L13.25 8.625M11 10.875L8.75 13.125M2.375 4.5H19.625C20.2463 4.5 20.75 3.99632 20.75 3.375V1.875C20.75 1.25368 20.2463 0.75 19.625 0.75H2.375C1.75368 0.75 1.25 1.25368 1.25 1.875V3.375C1.25 3.99632 1.75368 4.5 2.375 4.5Z" stroke="#0F172A" stroke-width="1.5" stroke-linecap="round" stroke-linejoin="round"/>
</svg>
