<svg width="16" height="4" viewBox="0 0 16 4" fill="none" xmlns="http://www.w3.org/2000/svg">
<path d="M1.77777 3.55566C0.799998 3.55566 0 2.75567 0 1.77789C0 0.800115 0.799998 0.000116825 1.77777 0.000116825C2.75555 0.000116825 3.55555 0.800115 3.55555 1.77789C3.55555 2.75567 2.75555 3.55566 1.77777 3.55566Z" fill="black"/>
<path d="M14.2221 3.55566C13.2443 3.55566 12.4443 2.75567 12.4443 1.77789C12.4443 0.800115 13.2443 0.000116825 14.2221 0.000116825C15.1999 0.000116825 15.9999 0.800115 15.9999 1.77789C15.9999 2.75567 15.1999 3.55566 14.2221 3.55566Z" fill="black"/>
<path d="M7.99945 3.55566C7.02168 3.55566 6.22168 2.75567 6.22168 1.77789C6.22168 0.800115 7.02168 0.000116825 7.99945 0.000116825C8.97723 0.000116825 9.77723 0.800115 9.77723 1.77789C9.77723 2.75567 8.97723 3.55566 7.99945 3.55566Z" fill="black"/>
</svg>
