<svg width="17" height="14" viewBox="0 0 17 14" fill="none" xmlns="http://www.w3.org/2000/svg">
<path d="M0.288396 4.47074C0.0211768 3.39898 0.673385 2.31352 1.74514 2.0463L8.53721 0.352849C9.60897 0.0856299 10.6944 0.737838 10.9616 1.8096L12.6551 8.60167C12.9223 9.67343 12.2701 10.7589 11.1984 11.0261L4.40628 12.7196C3.33453 12.9868 2.24907 12.3346 1.98185 11.2628L0.288396 4.47074Z" fill="white"/>
<path d="M12.564 7.85612L9.95301 4.4102C9.47661 3.779 8.92887 3.49021 8.41118 3.5913C7.89876 3.69108 7.49674 4.1663 7.29078 4.93405L6.73762 6.98051C6.62144 7.41245 6.37758 7.71391 6.05746 7.82171C5.73339 7.93609 5.35807 7.84498 5.00394 7.56947L4.85123 7.45084C4.36018 7.07515 3.83999 6.96418 3.37758 7.12985C2.91517 7.29551 2.59089 7.72337 2.45484 8.32257L1.99651 10.3678C1.83404 11.1079 2.05615 11.864 2.59584 12.3899C3.13552 12.9158 3.898 13.1231 4.63043 12.9404L11.354 11.2641C12.0601 11.088 12.6308 10.5707 12.8735 9.88336C13.1269 9.19335 13.0049 8.43462 12.564 7.85612Z" fill="#7194C0"/>
<path d="M3.52458 5.38611C4.50822 5.14087 5.10677 4.14467 4.86153 3.16104C4.61628 2.1774 3.6201 1.57882 2.63647 1.82407C1.65284 2.06932 1.05426 3.06552 1.2995 4.04915C1.54475 5.03278 2.54095 5.63136 3.52458 5.38611Z" fill="#FAC606" fill-opacity="0.31"/>
<path d="M5.88825 2.99067C5.99412 1.89118 6.97125 1.0857 8.07074 1.19156L15.0385 1.86248C16.138 1.96835 16.9435 2.94548 16.8376 4.04497L16.1667 11.0127C16.0608 12.1122 15.0837 12.9177 13.9842 12.8118L7.01643 12.1409C5.91695 12.0351 5.11146 11.0579 5.21733 9.95844L5.88825 2.99067Z" fill="white"/>
<path d="M16.3297 10.2795L15.0187 6.15972C14.7803 5.4057 14.3604 4.95063 13.8387 4.87311C13.3224 4.79612 12.7848 5.10988 12.3343 5.76485L11.1298 7.50927C10.8761 7.87766 10.5456 8.08043 10.2078 8.07519C9.86417 8.07483 9.54079 7.86365 9.29894 7.48574L9.19459 7.32293C8.85712 6.80488 8.40381 6.52664 7.91262 6.52844C7.42143 6.53025 6.97292 6.82532 6.64467 7.34474L5.52993 9.11962C5.12972 9.76305 5.08668 10.55 5.41987 11.2258C5.75306 11.9017 6.40261 12.3516 7.15399 12.424L14.0515 13.0881C14.7759 13.1579 15.4865 12.8607 15.9448 12.2938C16.4139 11.728 16.5521 10.972 16.3297 10.2795Z" fill="#7194C0"/>
<path d="M8.63326 4.9338C9.64234 5.03096 10.5391 4.29171 10.6363 3.28263C10.7334 2.27355 9.9942 1.37677 8.98512 1.27961C7.97604 1.18245 7.07926 1.92169 6.98209 2.93077C6.88493 3.93985 7.62418 4.83663 8.63326 4.9338Z" fill="#FAC606" fill-opacity="0.31"/>
</svg>
