<svg width="2686" height="2591" viewBox="0 0 2686 2591" fill="none" xmlns="http://www.w3.org/2000/svg">
<path d="M1342.87 2590.82C2084.39 2590.82 2685.51 2010.85 2685.51 1295.43C2685.51 580.011 2084.39 0.046875 1342.87 0.046875C601.35 0.046875 0.230469 580.011 0.230469 1295.43C0.230469 2010.85 601.35 2590.82 1342.87 2590.82Z" fill="black"/>
<path d="M786.823 816.525C574.171 1040.53 464.954 1220.41 436.924 1282.34C538.91 1502.16 712.682 1693.2 786.823 1761.24L1280.48 1282.34L786.823 816.525Z" fill="black"/>
<path d="M849.211 761.574C1081.39 556.406 1283.2 455.392 1340.16 429.222C1568 527.619 1766 695.276 1836.52 766.808L1340.16 1243.09L849.211 761.574Z" fill="white"/>
<path d="M477.601 403.069L792.239 709.251C933.284 560.609 1163.84 436.215 1261.48 392.602C831.84 227.211 559.879 330.669 477.601 403.069Z" fill="white"/>
<path d="M735.278 761.584L417.927 458.019C226.974 671.561 322.087 1040.72 393.516 1198.61L735.278 761.584Z" fill="white"/>
<path d="M1961.28 240.802C1629.28 219.866 1416.09 303.608 1350.99 348.096C1103.62 218.296 844.68 212.015 746.127 225.1C1271.25 -32.4072 1775.03 128.273 1961.28 240.802Z" fill="white"/>
<path d="M2213.53 413.532C1979.18 233.487 1604.15 324.556 1445.93 392.597C1615.09 470.058 1816.59 635.972 1896.18 709.247L2213.53 413.532Z" fill="white"/>
<path d="M1082.46 1591.16C1538.15 1876.41 1917.88 1376.57 1652.07 1052.07L1508.31 1182.92C1616.81 1436.24 1391.68 1507.42 1231.65 1449.85L1082.46 1591.16Z" fill="white"/>
<path d="M992.964 1805.73L922.442 1742.93L778.685 1879.01C885.011 1987.87 1076.14 2046.49 1158.42 2062.19C1451.36 2114.53 1703.61 2008.98 1793.12 1949.67C2115.9 1711.52 2134.88 1449.83 2134.88 1428.89C2199.98 1127.42 2037.24 868.869 1947.73 777.276L1812.11 902.889L1882.63 970.929L1801.26 1044.2L1852.79 1164.58H1969.43V1428.89H1836.52L1793.12 1538.81L1871.78 1619.93L1684.63 1805.73L1581.55 1727.23L1470.35 1782.18V1889.48H1190.97V1763.86L1082.47 1727.23L992.964 1805.73Z" fill="white"/>
<path d="M724.427 1818.82L407.076 2114.54C222.633 1882.15 321.185 1523.98 393.514 1373.94L724.427 1818.82Z" fill="white"/>
<path d="M700.031 2062.21L645.783 2004.63L461.34 2169.5C461.34 2169.5 420.654 2143.33 594.247 2271.56C767.841 2399.79 754.279 2371.01 754.279 2371.01L860.063 2153.8L778.691 2114.55L822.089 2062.21L754.279 2004.63L700.031 2062.21Z" fill="white"/>
<path d="M1171.99 2493.99C1004.9 2468.87 878.142 2422.46 835.65 2402.39L944.146 2179.95L1014.67 2224.44L1047.22 2153.79L1123.16 2179.95L1115.03 2248L1204.54 2258.46C1193.69 2392.45 1178.32 2471.31 1171.99 2493.99Z" fill="white"/>
<path d="M1364.57 2271.56H1280.48L1266.92 2504.47C1457.87 2512.84 1583.37 2481.79 1622.25 2465.22C1572.34 2301.92 1554.44 2252.37 1551.72 2248.01L1470.35 2271.56L1451.36 2179.97L1375.42 2190.44L1364.57 2271.56Z" fill="white"/>
<path d="M1717.17 2203.51L1638.51 2224.44L1698.18 2459.97L2034.52 2308.19L1885.34 2117.15L1809.39 2166.87L1763.28 2093.6L1692.76 2122.38L1717.17 2203.51Z" fill="white"/>
<path d="M2018.25 2033.42L1950.44 2077.91L2091.49 2268.95C2239.04 2162.18 2328.37 2060.47 2354.59 2022.95L2148.45 1886.87L2091.49 1954.91L2023.68 1905.19L1966.72 1954.91L2018.25 2033.42Z" fill="white"/>
<path d="M2243.38 1761.25L2197.27 1829.29C2256.03 1874.65 2377.37 1965.37 2392.56 1965.37C2498.89 1818.82 2543.55 1691.47 2552.59 1646.11L2308.48 1585.92L2281.35 1669.66L2197.27 1646.11L2164.72 1706.3L2243.38 1761.25Z" fill="white"/>
<path d="M2335.6 1523.11L2351.87 1441.99L2281.35 1428.9C2246.63 1418.44 2258.74 1371.33 2270.5 1345.16H2360.01V1253.57L2609.55 1232.63C2609.55 1433.62 2586.04 1551.9 2574.29 1585.92L2335.6 1523.11Z" fill="white"/>
<path d="M2229.81 1044.22L2256.94 1109.64L2351.87 1099.17V1177.68L2601.41 1164.59V1156.74C2584.05 993.447 2534.51 867.138 2511.9 824.392L2286.77 918.602L2313.9 1002.34L2229.81 1044.22Z" fill="white"/>
<path d="M2482.07 758.974L2251.52 855.801L2213.54 777.293L2132.17 816.547C2097.45 810.266 2092.39 775.55 2094.2 758.974L2153.87 696.167L2094.2 641.212L2273.22 471.11C2392.56 594.63 2462.18 714.486 2482.07 758.974Z" fill="white"/>
<path d="M135.852 2365.76L363.693 2151.17L420.654 2208.74L181.963 2420.72L135.852 2365.76Z" fill="black"/>
<path d="M2482.06 167.538L2254.22 376.894L2308.47 421.382L2536.31 217.26L2482.06 167.538Z" fill="black"/>
</svg>
