<svg width="4261" height="432" viewBox="0 0 4261 432" fill="none" xmlns="http://www.w3.org/2000/svg">
    <path
        d="M348.682 3.71779C416.903 0.915812 490.177 13.3104 603.372 44.1096C678.433 64.5328 746.503 86.7895 824.204 82.9875C876.759 80.4159 956.097 50.9829 975.3 44.1096C1065.25 11.914 1102.97 3.71679 1189.06 0.181059C1257.28 -2.62092 1330.55 27.5652 1443.75 58.3645C1518.81 78.7876 1570.71 104.586 1648.41 100.784C1700.96 98.2124 1764.13 72.3187 1783.33 65.4455C1873.28 33.2498 1911.01 7.26264 1997.09 3.72691C2065.31 0.924934 2138.59 13.3212 2251.78 44.1204C2326.84 64.5436 2397.44 94.9903 2475.14 91.1883C2527.69 88.6167 2590.86 66.2636 2610.06 59.3904C2700.01 27.1947 2738.24 18.9932 2824.33 15.4575C2892.55 12.6555 2962.79 16.8647 3075.99 47.664C3151.05 68.0871 3269.66 109.5 3349 109.5C3349 109.5 3406 94.5 3436.8 83.0025C3467.59 71.5049 3537.3 38.8732 3556.5 32C3646.45 -0.195667 3699.39 7.27084 3785.48 3.73511C3853.7 0.933131 3926.97 13.3279 4040.17 44.1271C4115.23 64.5503 4183.3 86.8074 4261 83.0054V432H0V82.9845C52.555 80.4129 115.722 54.5196 134.925 47.6464C224.875 15.4507 262.597 7.25352 348.682 3.71779Z"
        fill="#004E38" />
</svg>