<svg width="631" height="557" viewBox="0 0 631 557" fill="none" xmlns="http://www.w3.org/2000/svg">
<g clip-path="url(#clip0_96_427)">
<mask id="mask0_96_427" style="mask-type:alpha" maskUnits="userSpaceOnUse" x="0" y="102" width="4257" height="455">
<path d="M273.5 102.005C527 102.007 664 222.503 850 193.004C949 177.303 996.675 102.004 1121.5 102.005C1375 102.007 1531.5 251.003 1681 213.003C1771 190.127 1816.5 101.999 1969.5 102C2223 102.001 2376.5 228.003 2539.5 190.503C2557 187.727 2694.68 102.002 2819.5 102.003C3073 102.005 3223.5 259.503 3323.5 237.503C3323.5 237.503 3342 235.004 3401 193.004C3460 151.005 3549.68 102.005 3674.5 102.006C3928 102.007 4065 222.504 4251 193.004L4257 556.502H0V193.004C59 151.004 148.675 102.005 273.5 102.005Z" fill="#C4D82D"/>
</mask>
<g mask="url(#mask0_96_427)">
<path d="M273.5 102.005C527 102.007 664 222.503 850 193.004C949 177.303 996.675 102.004 1121.5 102.005C1375 102.007 1537 224 1686.5 186C1788.41 160.097 1816.5 101.999 1969.5 102C2223 102.001 2376.5 228.003 2539.5 190.503C2557 187.727 2694.68 102.002 2819.5 102.003C3073 102.005 3223.5 259.503 3323.5 237.503C3323.5 237.503 3342 235.004 3401 193.004C3460 151.005 3549.68 102.005 3674.5 102.006C3928 102.007 4065 222.504 4251 193.004L4257 556.502H0V193.004C59 151.004 148.675 102.005 273.5 102.005Z" fill="#C4D82D"/>
<path d="M333.5 111.254C401 108.48 485 127.648 597 158.148C671.268 178.373 738.62 200.413 815.5 196.648C867.5 194.101 936.5 168.455 955.5 161.648C1044.5 129.766 1069.06 111.244 1154.23 107.743C1221.73 104.968 1313.27 127.648 1425.27 158.148C1499.53 178.373 1554.12 196.908 1631 193.143C1683 190.596 1761 171.955 1780 165.149C1869 133.266 1917.82 116.002 2003 112.5C2069 109.787 2129 112.5 2250.5 152.394C2321.2 175.61 2408.12 200.41 2485 196.645C2537 194.098 2578 164.964 2597 158.157C2686 126.274 2705 130.24 2811 120.5C2939 120.5 3005.5 153.5 3117.5 184C3191.77 204.225 3271.05 202.198 3323 200.003C3394 197.003 3379.5 197.698 3401 196.645C3453 194.098 3515.5 168.456 3534.5 161.65C3623.5 129.767 3649.32 114.756 3734.5 111.254C3802 108.48 3886 127.648 3998 158.148C4072.27 178.372 4139.62 200.413 4216.5 196.648V554.986H0V196.645C52 194.098 114.5 168.457 133.5 161.65C222.5 129.767 248.324 114.756 333.5 111.254Z" fill="#31B44B"/>
<path d="M345 132.382C412.5 129.607 485 141.881 597 172.381C671.268 192.606 738.62 214.647 815.5 210.882C867.5 208.335 946 179.188 965 172.381C1054 140.498 1091.32 132.381 1176.5 128.879C1244 126.105 1316.5 155.998 1428.5 186.498C1502.77 206.722 1554.12 232.27 1631 228.505C1683 225.959 1745.5 200.316 1764.5 193.51C1853.5 161.627 1890.82 135.892 1976 132.391C2043.5 129.616 2116 141.892 2228 172.392C2302.27 192.617 2372.12 222.768 2449 219.003C2501 216.456 2563.5 194.32 2582.5 187.514C2671.5 155.631 2709.32 147.509 2794.5 144.008C2862 141.233 2931.5 145.401 3043.5 175.901C3117.77 196.126 3230.5 225.797 3309 225.797C3309 225.797 3348.5 213.443 3400.5 210.896C3452.5 208.35 3515 182.708 3534 175.901C3623 144.018 3660.32 135.9 3745.5 132.399C3813 129.624 3885.5 141.899 3997.5 172.399C4071.77 192.623 4139.12 214.664 4216 210.899V556.504H0V210.879C52 208.332 114.5 182.69 133.5 175.884C222.5 144.001 259.824 135.883 345 132.382Z" fill="#004E38"/>
</g>
</g>
<defs>
<clipPath id="clip0_96_427">
<rect width="631" height="557" fill="white"/>
</clipPath>
</defs>
</svg>
