<svg width="40" height="40" viewBox="0 0 40 40" fill="none" xmlns="http://www.w3.org/2000/svg">
<path d="M20 0C8.955 0 0 8.955 0 20C0 31.045 8.955 40 20 40C31.045 40 40 31.045 40 20C40 8.955 31.045 0 20 0ZM20 37.5C17.54 37.5 15.2 36.9925 13.0775 36.075L22.185 25.83C22.3875 25.6 22.5 25.305 22.5 25V21.25C22.5 20.56 21.94 20 21.25 20C16.8375 20 12.18 15.4125 12.135 15.365C11.9 15.13 11.5825 15 11.25 15H6.25C5.56 15 5 15.56 5 16.25V23.75C5 24.2225 5.2675 24.6575 5.69 24.8675L10 27.0225V34.3625C5.4675 31.2 2.5 25.9475 2.5 20C2.5 17.315 3.105 14.7725 4.185 12.5H8.75C9.0825 12.5 9.4 12.3675 9.635 12.135L14.635 7.135C14.87 6.9 15 6.5825 15 6.25V3.225C16.585 2.7525 18.2625 2.5 20 2.5C22.75 2.5 25.3525 3.135 27.6675 4.265C27.505 4.4025 27.3475 4.545 27.1975 4.695C25.78 6.1125 25 7.995 25 9.9975C25 12 25.78 13.885 27.1975 15.3C28.62 16.7225 30.5275 17.4975 32.495 17.4975C32.6175 17.4975 32.7425 17.495 32.8675 17.4875C33.4075 19.51 34.38 24.78 32.54 32.0325C32.5225 32.1 32.5125 32.17 32.5075 32.2375C29.33 35.4825 24.9025 37.4975 20.0025 37.4975L20 37.5Z" fill="white"/>
</svg>
