<svg width="37" height="38" viewBox="0 0 37 38" fill="none" xmlns="http://www.w3.org/2000/svg">
<path d="M26.4297 0H16.5111L18.3738 2.98024H24.7068V12.2935H34.02V34.2728H11.2957V16.0725L8.31543 15.7487V37.253H37.0003V10.98L26.4297 0ZM26.9419 10.0583V4.98446L31.8456 10.0583H26.9419Z" fill="white"/>
<path d="M14.2754 17.8809H30.6667V19.371H14.2754V17.8809Z" fill="white"/>
<path d="M14.2754 23.0967H30.6667V24.5868H14.2754V23.0967Z" fill="white"/>
<path d="M14.2754 28.3125H30.6667V29.8026H14.2754V28.3125Z" fill="white"/>
<path d="M15.73 11.7317C16.9504 10.4443 17.5189 8.76713 17.4742 7.07547C17.3818 3.57778 14.3289 0.682846 10.8297 0.775606C7.30262 0.868739 4.4062 3.86239 4.4997 7.39137C4.53994 8.9072 5.10283 10.4085 6.15635 11.6062L3.24502 12.8787L0.322148 15.9916C0.0963949 16.2881 -0.00940373 16.6704 0.000654588 17.0496C0.0252416 17.9817 0.83475 18.8068 1.79662 18.7815C2.17549 18.7714 2.52231 18.6463 2.83673 18.4045L5.78866 15.2931L6.90849 12.3445C8.15982 13.3325 9.66037 13.8179 11.1751 13.778C12.8377 13.7341 14.4824 13.0486 15.73 11.7317ZM8.25071 10.1786C7.44269 9.41347 7.03664 8.40205 7.0087 7.35263C6.95244 5.22474 8.71153 3.33973 10.8968 3.28236C13.0266 3.22611 14.9104 4.98557 14.9678 7.14178C15.0263 9.35833 13.2668 11.2143 11.108 11.2713C10.0888 11.2985 9.05761 10.9166 8.25071 10.1786Z" fill="white"/>
</svg>
