<svg width="35" height="49" viewBox="0 0 35 49" fill="none" xmlns="http://www.w3.org/2000/svg">
<path d="M33.4785 12.165V42.5746C33.4785 43.7844 32.9979 44.9446 32.1425 45.8001C31.287 46.6555 30.1268 47.1361 28.917 47.1361H1.54834V7.60352H28.917C30.1268 7.60352 31.287 8.0841 32.1425 8.93953C32.9979 9.79497 33.4785 10.9552 33.4785 12.165Z" fill="#08231A"/>
<path d="M28.917 4.89805V7.60451H1.54834C26.8036 1.08924 24.9334 1.52257 25.5416 1.52257C26.4368 1.52257 27.2954 1.8782 27.9284 2.51123C28.5614 3.14425 28.917 4.00282 28.917 4.89805Z" fill="#040404"/>
<path d="M17.5145 31.9323C22.5529 31.9323 26.6374 27.8479 26.6374 22.8094C26.6374 17.771 22.5529 13.6865 17.5145 13.6865C12.4761 13.6865 8.3916 17.771 8.3916 22.8094C8.3916 27.8479 12.4761 31.9323 17.5145 31.9323Z" fill="#08231A"/>
<path d="M30.4386 6.27993V4.89629C30.4365 3.59842 29.9201 2.35429 29.0023 1.43655C28.0846 0.518817 26.8405 0.00234943 25.5426 0.000338786C24.6531 -0.0528781 1.00961 6.1811 0.933584 6.21911C0.761074 6.29347 0.603837 6.39916 0.469837 6.53081C-0.168766 7.17702 0.0288971 4.07523 0.0288971 47.1353C0.0288971 47.5386 0.189091 47.9253 0.474236 48.2104C0.759382 48.4956 1.14612 48.6558 1.54938 48.6558H28.9181C30.5311 48.6558 32.0781 48.015 33.2186 46.8744C34.3592 45.7338 35 44.1869 35 42.5739V12.1642C34.999 10.8166 34.5505 9.50757 33.7249 8.44254C32.8993 7.3775 31.7433 6.61682 30.4386 6.27993ZM25.5426 3.0413C26.0346 3.0413 26.5064 3.23674 26.8543 3.58462C27.2022 3.9325 27.3976 4.40432 27.3976 4.89629V6.08227H13.5156C25.9607 2.85885 25.2689 3.0413 25.5426 3.0413ZM31.959 42.5739C31.959 43.3804 31.6386 44.1539 31.0684 44.7241C30.4981 45.2944 29.7246 45.6148 28.9181 45.6148H3.06986V9.12323H28.9181C29.7246 9.12323 30.4981 9.44362 31.0684 10.0139C31.6386 10.5842 31.959 11.3577 31.959 12.1642V42.5739Z" fill="white"/>
<path d="M17.5753 12.1642C15.4677 12.1522 13.404 12.7662 11.6457 13.9283C9.8874 15.0905 8.51375 16.7485 7.69884 18.6923C6.88393 20.636 6.66446 22.7779 7.06825 24.8465C7.47203 26.9151 8.48089 28.8173 9.96694 30.3119C11.453 31.8064 13.3493 32.8262 15.4156 33.2418C17.4818 33.6574 19.625 33.4503 21.5734 32.6465C23.5217 31.8427 25.1876 30.4786 26.3598 28.727C27.532 26.9754 28.1578 24.9153 28.1579 22.8076C28.1579 19.9953 27.0449 17.2973 25.062 15.303C23.0791 13.3088 20.3875 12.1803 17.5753 12.1642ZM24.9648 21.2871H22.7373C22.5528 19.502 22.0371 17.7669 21.2169 16.1707C22.1731 16.7034 23.003 17.4364 23.6499 18.3194C24.2967 19.2024 24.7453 20.2148 24.9648 21.2871ZM15.3554 21.2871C15.6067 19.3574 16.3502 17.5248 17.5145 15.9654C18.6788 17.5248 19.4223 19.3574 19.6736 21.2871H15.3554ZM19.6736 24.3281C19.4223 26.2578 18.6788 28.0905 17.5145 29.6498C16.3502 28.0905 15.6067 26.2578 15.3554 24.3281H19.6736ZM13.8121 16.1707C12.9918 17.7669 12.4762 19.502 12.2916 21.2871H10.0641C10.2837 20.2148 10.7322 19.2024 11.3791 18.3194C12.0259 17.4364 12.8559 16.7034 13.8121 16.1707ZM10.0641 24.3281H12.2916C12.4762 26.1132 12.9918 27.8483 13.8121 29.4445C12.8559 28.9118 12.0259 28.1789 11.3791 27.2958C10.7322 26.4128 10.2837 25.4005 10.0641 24.3281ZM21.2169 29.4445C22.0371 27.8483 22.5528 26.1132 22.7373 24.3281H24.9648C24.7453 25.4005 24.2967 26.4128 23.6499 27.2958C23.003 28.1789 22.1731 28.9118 21.2169 29.4445Z" fill="white"/>
<path d="M25.1169 38.0127H9.91208C9.50883 38.0127 9.12209 38.1729 8.83694 38.458C8.5518 38.7432 8.3916 39.1299 8.3916 39.5332C8.3916 39.9364 8.5518 40.3232 8.83694 40.6083C9.12209 40.8935 9.50883 41.0537 9.91208 41.0537H25.1169C25.5202 41.0537 25.9069 40.8935 26.1921 40.6083C26.4772 40.3232 26.6374 39.9364 26.6374 39.5332C26.6374 39.1299 26.4772 38.7432 26.1921 38.458C25.9069 38.1729 25.5202 38.0127 25.1169 38.0127Z" fill="white"/>
</svg>
