<svg width="35" height="35" viewBox="0 0 35 35" fill="none" xmlns="http://www.w3.org/2000/svg">
<path d="M16.6869 33.3709C7.48877 33.3709 0 25.8828 0 16.6854C0 7.4881 7.48877 0 16.6869 0C25.8851 0 33.3739 7.4881 33.3739 16.6854C33.3739 25.8828 25.8851 33.3709 16.6869 33.3709ZM16.6869 2.44177C8.82373 2.44177 2.44199 8.83922 2.44199 16.6854C2.44199 24.5317 8.82373 30.9291 16.6869 30.9291C24.5502 30.9291 30.9319 24.5317 30.9319 16.6854C30.9319 8.83922 24.5502 2.44177 16.6869 2.44177Z" fill="#89875A"/>
<path d="M33.781 35C33.4717 35 33.1624 34.8861 32.9182 34.6419L29.6622 31.3862C29.1901 30.9141 29.1901 30.1328 29.6622 29.6607C30.1343 29.1886 30.9157 29.1886 31.3879 29.6607L34.6439 32.9164C35.116 33.3885 35.116 34.1698 34.6439 34.6419C34.3997 34.8861 34.0903 35 33.781 35Z" fill="#89875A"/>
</svg>
