<svg width="43" height="42" viewBox="0 0 43 42" fill="none" xmlns="http://www.w3.org/2000/svg">
<path d="M3.49048 12.3921L20.3588 22.1539L37.1125 12.4493" stroke="#FFE89A" stroke-width="3" stroke-linecap="round" stroke-linejoin="round"/>
<path d="M20.3582 39.4616V22.1348" stroke="#FFE89A" stroke-width="3" stroke-linecap="round" stroke-linejoin="round"/>
<path d="M38.7168 22.6891V15.6972C38.7168 13.0609 36.8256 9.85156 34.5141 8.57163L24.3128 2.91697C22.135 1.69434 18.5818 1.69434 16.404 2.91697L6.20274 8.57163C3.89122 9.85156 2 13.0609 2 15.6972V26.5098C2 29.146 3.89122 32.3554 6.20274 33.6353L16.404 39.29C17.4929 39.9013 18.9257 40.2069 20.3584 40.2069C21.7912 40.2069 23.2239 39.9013 24.3128 39.29" stroke="#FFE89A" stroke-width="3" stroke-linecap="round" stroke-linejoin="round"/>
<path d="M34.1126 39.0607C37.4888 39.0607 40.2257 36.3237 40.2257 32.9476C40.2257 29.5714 37.4888 26.8345 34.1126 26.8345C30.7365 26.8345 27.9995 29.5714 27.9995 32.9476C27.9995 36.3237 30.7365 39.0607 34.1126 39.0607Z" stroke="#FFE89A" stroke-width="3" stroke-linecap="round" stroke-linejoin="round"/>
<path d="M41.372 40.2067L39.4617 38.2964" stroke="#FFE89A" stroke-width="3" stroke-linecap="round" stroke-linejoin="round"/>
</svg>
