<svg width="12" height="12" viewBox="0 0 12 12" fill="none" xmlns="http://www.w3.org/2000/svg">
<path d="M4.1486 9.40791H3.9064C1.9688 9.40791 1 8.91786 1 6.46764V4.01742C1 2.05724 1.9688 1.07715 3.9064 1.07715H7.78161C9.71921 1.07715 10.688 2.05724 10.688 4.01742V6.46764C10.688 8.42782 9.71921 9.40791 7.78161 9.40791H7.53941C7.38924 9.40791 7.24392 9.48141 7.15189 9.60392L6.42529 10.584C6.10558 11.0153 5.58243 11.0153 5.26272 10.584L4.53612 9.60392C4.45862 9.49611 4.27939 9.40791 4.1486 9.40791Z" stroke="#292D32" stroke-miterlimit="10" stroke-linecap="round" stroke-linejoin="round"/>
<path d="M7.77979 5.4873H7.78372" stroke="#292D32" stroke-width="1.5" stroke-linecap="round" stroke-linejoin="round"/>
<path d="M5.8418 5.4873H5.84578" stroke="#292D32" stroke-width="1.5" stroke-linecap="round" stroke-linejoin="round"/>
<path d="M3.90381 5.4873H3.90778" stroke="#292D32" stroke-width="1.5" stroke-linecap="round" stroke-linejoin="round"/>
</svg>
