<svg width="37" height="37" viewBox="0 0 37 37" fill="none" xmlns="http://www.w3.org/2000/svg">
<path d="M1 36H36" stroke="#89875A" stroke-width="2" stroke-miterlimit="10" stroke-linecap="round" stroke-linejoin="round"/>
<path d="M2.66211 35.9995L2.74961 14.3742C2.74961 13.2776 3.25711 12.2351 4.09711 11.552L16.3472 1.755C17.6072 0.748334 19.3745 0.748334 20.652 1.755L32.9022 11.534C33.7597 12.2171 34.2497 13.2596 34.2497 14.3742V35.9995" stroke="#89875A" stroke-width="2" stroke-miterlimit="10" stroke-linejoin="round"/>
<path d="M20.25 27.0107H16.75C15.2975 27.0107 14.125 28.2151 14.125 29.7072V35.9988H22.875V29.7072C22.875 28.2151 21.7025 27.0107 20.25 27.0107Z" stroke="#89875A" stroke-width="2" stroke-miterlimit="10" stroke-linejoin="round"/>
<path d="M14.124 21.1686H10.624C9.66152 21.1686 8.87402 20.3597 8.87402 19.371V16.6746C8.87402 15.6859 9.66152 14.877 10.624 14.877H14.124C15.0865 14.877 15.874 15.6859 15.874 16.6746V19.371C15.874 20.3597 15.0865 21.1686 14.124 21.1686Z" stroke="#89875A" stroke-width="2" stroke-miterlimit="10" stroke-linejoin="round"/>
<path d="M26.3733 21.1686H22.8733C21.9108 21.1686 21.1233 20.3597 21.1233 19.371V16.6746C21.1233 15.6859 21.9108 14.877 22.8733 14.877H26.3733C27.3358 14.877 28.1233 15.6859 28.1233 16.6746V19.371C28.1233 20.3597 27.3358 21.1686 26.3733 21.1686Z" stroke="#89875A" stroke-width="2" stroke-miterlimit="10" stroke-linejoin="round"/>
<path d="M30.7515 9.04176L30.699 3.64893H22.999" stroke="#89875A" stroke-width="2" stroke-miterlimit="10" stroke-linecap="round" stroke-linejoin="round"/>
</svg>
