<svg width="48" height="45" viewBox="0 0 48 45" fill="none" xmlns="http://www.w3.org/2000/svg">
<path d="M24.4776 37.7082C32.8617 37.7082 39.6584 31.1836 39.6584 23.1351C39.6584 15.0866 32.8617 8.56201 24.4776 8.56201C16.0935 8.56201 9.29688 15.0866 9.29688 23.1351C9.29688 31.1836 16.0935 37.7082 24.4776 37.7082Z" fill="black"/>
<path d="M18.1906 17.7471C15.7862 20.2672 14.5513 22.2908 14.2344 22.9875C15.3875 25.4605 17.3523 27.6097 18.1906 28.3751L23.7722 22.9875L18.1906 17.7471Z" fill="black"/>
<path d="M18.896 17.1291C21.5212 14.8209 23.8029 13.6845 24.4469 13.3901C27.0231 14.4971 29.2618 16.3832 30.0592 17.188L24.4469 22.5462L18.896 17.1291Z" fill="white"/>
<path d="M14.6943 13.0958L18.2518 16.5404C19.8466 14.8681 22.4534 13.4687 23.5574 12.978C18.6996 11.1174 15.6246 12.2813 14.6943 13.0958Z" fill="white"/>
<path d="M17.6074 17.129L14.0192 13.7139C11.8602 16.1162 12.9356 20.2693 13.7432 22.0456L17.6074 17.129Z" fill="white"/>
<path d="M31.4698 11.2703C27.716 11.0348 25.3055 11.9769 24.5695 12.4774C21.7725 11.0171 18.8448 10.9465 17.7305 11.0937C23.6678 8.19671 29.364 10.0044 31.4698 11.2703Z" fill="white"/>
<path d="M34.3217 13.2135C31.6719 11.188 27.4316 12.2126 25.6426 12.978C27.5553 13.8495 29.8335 15.716 30.7335 16.5403L34.3217 13.2135Z" fill="white"/>
<path d="M21.5332 26.4617C26.6855 29.6708 30.979 24.0476 27.9735 20.397L26.3481 21.869C27.5748 24.7189 25.0294 25.5196 23.22 24.8719L21.5332 26.4617Z" fill="white"/>
<path d="M20.5214 28.8758L19.724 28.1692L18.0986 29.7002C19.3008 30.9249 21.4619 31.5843 22.3922 31.761C25.7043 32.3498 28.5565 31.1623 29.5685 30.495C33.2181 27.816 33.4327 24.8719 33.4327 24.6364C34.1688 21.2448 32.3287 18.3361 31.3166 17.3057L29.7832 18.7188L30.5806 19.4843L29.6605 20.3086L30.2432 21.6629H31.562V24.6364H30.0592L29.5685 25.8729L30.4579 26.7855L28.3418 28.8758L27.1764 27.9926L25.919 28.6108V29.8179H22.7602V28.4048L21.5335 27.9926L20.5214 28.8758Z" fill="white"/>
<path d="M17.4848 29.023L13.8966 32.3498C11.8112 29.7354 12.9255 25.706 13.7433 24.0181L17.4848 29.023Z" fill="white"/>
<path d="M17.209 31.761L16.5957 31.1133L14.5102 32.968C14.5102 32.968 14.0502 32.6736 16.013 34.1162C17.9757 35.5588 17.8224 35.235 17.8224 35.235L19.0185 32.7914L18.0984 32.3498L18.5891 31.761L17.8224 31.1133L17.209 31.761Z" fill="white"/>
<path d="M22.5455 36.6188C20.6564 36.3362 19.2231 35.8141 18.7427 35.5884L19.9694 33.0859L20.7668 33.5864L21.1348 32.7915L21.9935 33.0859L21.9015 33.8514L22.9136 33.9691C22.7909 35.4765 22.6171 36.3636 22.5455 36.6188Z" fill="white"/>
<path d="M24.7227 34.1164H23.772L23.6187 36.7366C25.7777 36.8308 27.1966 36.4814 27.6362 36.295C27.0719 34.4579 26.8695 33.9004 26.8388 33.8514L25.9188 34.1164L25.7041 33.0859L24.8454 33.2037L24.7227 34.1164Z" fill="white"/>
<path d="M28.7097 33.3508L27.8203 33.5863L28.495 36.2359L32.2979 34.5284L30.6111 32.3792L29.7524 32.9386L29.231 32.1143L28.4337 32.4381L28.7097 33.3508Z" fill="white"/>
<path d="M32.1139 31.4372L31.3472 31.9377L32.9419 34.0869C34.6103 32.8857 35.6203 31.7415 35.9167 31.3195L33.5859 29.7886L32.9419 30.554L32.1752 29.9947L31.5312 30.554L32.1139 31.4372Z" fill="white"/>
<path d="M34.6594 28.3754L34.138 29.1408C34.8025 29.6511 36.1744 30.6717 36.3461 30.6717C37.5483 29.023 38.0533 27.5903 38.1556 27.08L35.3954 26.4028L35.0888 27.3449L34.138 27.08L33.77 27.7571L34.6594 28.3754Z" fill="white"/>
<path d="M35.7019 25.6961L35.8859 24.7835L35.0885 24.6363C34.6959 24.5185 34.8329 23.9886 34.9658 23.6942H35.9779V22.6637L38.7994 22.4282C38.7994 24.6893 38.5336 26.02 38.4007 26.4027L35.7019 25.6961Z" fill="white"/>
<path d="M34.5059 20.3085L34.8125 21.0445L35.8859 20.9267V21.8099L38.7074 21.6627V21.5744C38.5111 19.7373 37.9509 18.3163 37.6954 17.8354L35.1499 18.8953L35.4566 19.8374L34.5059 20.3085Z" fill="white"/>
<path d="M37.3579 17.0998L34.7511 18.1891L34.3217 17.3059L33.4017 17.7475C33.0091 17.6768 32.9519 17.2863 32.9723 17.0998L33.647 16.3932L32.9723 15.775L34.9964 13.8613C36.3458 15.2509 37.133 16.5993 37.3579 17.0998Z" fill="white"/>
<path d="M13.1915 23.0758C11.8666 25.172 11.7194 28.2868 11.8114 29.5822C8.74461 23.9532 10.5949 18.542 11.9034 16.54C11.6826 19.5312 12.6701 22.1436 13.1915 23.0758Z" fill="white"/>
<path d="M38.3906 6.01397L36.9834 7.94327L36.5712 7.66624L36.5836 6.01515L36.5709 6.00655L35.7587 7.12005L35.2729 6.79356L36.6802 4.86426L37.0982 5.14524L37.0783 6.78849L37.095 6.79974L37.9059 5.68812L38.3906 6.01397Z" fill="black"/>
<path d="M35.5496 5.63626C35.4188 5.86289 35.2624 6.03082 35.0806 6.1401C34.8988 6.24933 34.7068 6.30362 34.5044 6.30291C34.3028 6.30256 34.106 6.25133 33.9139 6.14911C33.7211 6.04648 33.5713 5.91288 33.4646 5.74825C33.3579 5.58368 33.3044 5.39873 33.3042 5.19347C33.3051 4.98798 33.3708 4.77224 33.5012 4.54625C33.6321 4.31956 33.7881 4.15145 33.9691 4.04182C34.1509 3.93253 34.3427 3.87807 34.5443 3.87842C34.7459 3.87877 34.9431 3.93024 35.1359 4.03281C35.328 4.13502 35.4776 4.2681 35.5847 4.43208C35.6926 4.59642 35.7464 4.78148 35.7462 4.98739C35.746 5.1933 35.6805 5.40957 35.5496 5.63626ZM35.0195 5.3541C35.0969 5.22003 35.1424 5.09608 35.156 4.98238C35.1704 4.86904 35.1542 4.76882 35.1077 4.68179C35.0618 4.59518 34.9872 4.52435 34.8838 4.46935C34.7811 4.41471 34.6791 4.39151 34.5775 4.3997C34.476 4.40794 34.3786 4.44768 34.2853 4.51905C34.1928 4.59076 34.1078 4.69369 34.0304 4.82782C33.9529 4.96189 33.907 5.08566 33.8927 5.19901C33.8791 5.31271 33.8955 5.4131 33.9421 5.50007C33.9887 5.58709 34.0633 5.65793 34.166 5.71257C34.2693 5.76756 34.3715 5.79076 34.4723 5.78223C34.5738 5.77398 34.6708 5.734 34.7634 5.66228C34.8567 5.59098 34.942 5.48823 35.0195 5.3541Z" fill="black"/>
<path d="M30.3091 2.68384L30.4698 2.24805L32.4246 2.91256L32.2638 3.34835L31.5626 3.10995L30.9043 4.8943L30.3532 4.707L31.0114 2.92262L30.3091 2.68384Z" fill="black"/>
<path d="M33.3937 3.31586L32.4155 5.47573L31.8716 5.24875L32.8499 3.08887L33.3937 3.31586Z" fill="black"/>
<path d="M27.8529 4.0423L27.2319 3.9047L28.5904 1.78857L29.3596 1.95906L29.6143 4.43269L28.9933 4.29508L28.8447 2.45396L28.8261 2.44982L27.8529 4.0423ZM27.9872 3.1208L29.2852 3.40847L29.1839 3.8298L27.8859 3.54211L27.9872 3.1208Z" fill="black"/>
<path d="M24.4859 2.0755C24.4809 1.99094 24.4478 1.92424 24.3864 1.87539C24.3259 1.8258 24.2378 1.79906 24.1221 1.79518C24.0455 1.79261 23.9812 1.80005 23.9295 1.81749C23.8777 1.83494 23.8384 1.86008 23.8116 1.89294C23.7849 1.92503 23.7704 1.96252 23.768 2.0054C23.7651 2.04059 23.7712 2.07186 23.7861 2.09922C23.802 2.1266 23.825 2.15115 23.8554 2.17289C23.8866 2.19388 23.9243 2.21278 23.9684 2.22961C24.0125 2.24643 24.0623 2.26152 24.1178 2.27489L24.3268 2.32793C24.4472 2.35728 24.553 2.39458 24.644 2.43982C24.7359 2.4851 24.8123 2.5379 24.8732 2.59825C24.935 2.65862 24.9808 2.72729 25.0108 2.80424C25.0407 2.88119 25.0544 2.9668 25.0517 3.06107C25.0455 3.20969 25.0018 3.33595 24.9205 3.43986C24.8392 3.54378 24.7249 3.62162 24.5776 3.6735C24.431 3.72531 24.2556 3.7478 24.0513 3.74097C23.8462 3.73408 23.6684 3.69864 23.5181 3.63452C23.3678 3.57039 23.2526 3.47677 23.1723 3.35364C23.0921 3.23051 23.0541 3.07696 23.0584 2.89298L23.6259 2.91201C23.6279 2.98802 23.6468 3.05195 23.6825 3.10378C23.7182 3.15561 23.7682 3.19564 23.8327 3.22388C23.8981 3.25216 23.9742 3.26775 24.0612 3.27067C24.141 3.27334 24.2092 3.26527 24.2658 3.24646C24.3232 3.22767 24.3678 3.2004 24.3995 3.16464C24.4311 3.12887 24.4483 3.08726 24.4508 3.03978C24.4516 2.99531 24.4386 2.9569 24.4118 2.92455C24.3851 2.89143 24.3429 2.8624 24.2855 2.83746C24.2289 2.81178 24.1563 2.78748 24.0676 2.76456L23.8135 2.69851C23.6029 2.64465 23.4384 2.56357 23.3201 2.45528C23.2018 2.34621 23.1463 2.20243 23.1536 2.02393C23.158 1.87832 23.2034 1.75211 23.2896 1.6453C23.3758 1.53848 23.4926 1.45687 23.6401 1.40044C23.7877 1.34401 23.9544 1.31891 24.1403 1.32515C24.3303 1.33151 24.494 1.36807 24.6314 1.43482C24.7697 1.50082 24.8755 1.59067 24.9489 1.70437C25.0222 1.81807 25.0571 1.94812 25.0533 2.09452L24.4859 2.0755Z" fill="black"/>
<path d="M25.2617 1.90376L25.2995 1.44287L27.3668 1.59906L27.3291 2.05994L26.5874 2.00391L26.4327 3.89099L25.8499 3.84701L26.0046 1.95988L25.2617 1.90376Z" fill="black"/>
<path d="M19.8462 2.15565L19.7959 1.69587L21.8582 1.48779L21.9086 1.94757L21.1687 2.02222L21.3748 3.90481L20.7934 3.96345L20.5873 2.08088L19.8462 2.15565Z" fill="black"/>
<path d="M19.2574 1.83838L19.8717 4.11859L19.3846 4.23953L18.0848 3.15818L18.0697 3.16193L18.4242 4.47794L17.8501 4.62049L17.2358 2.34026L17.73 2.2176L19.0187 3.29932L19.0384 3.29443L18.6845 1.98062L19.2574 1.83838Z" fill="black"/>
<path d="M16.0461 5.31945L15.127 3.1357L16.7131 2.52051L16.8935 2.94915L15.8572 3.3511L16.0457 3.79891L17.0009 3.42844L17.1818 3.85814L16.2265 4.22862L16.4154 4.67753L17.4518 4.27561L17.6322 4.70426L16.0461 5.31945Z" fill="black"/>
<path d="M14.6568 5.9462L13.8487 6.34141L12.7349 4.24289L13.5419 3.84815C13.7646 3.73922 13.9786 3.6874 14.1841 3.69276C14.3898 3.69712 14.5782 3.75641 14.7491 3.87076C14.9197 3.98434 15.0628 4.15015 15.1784 4.36807C15.2944 4.58663 15.3504 4.7959 15.3463 4.99586C15.3428 5.19541 15.2827 5.3767 15.1657 5.53974C15.0484 5.70214 14.8788 5.83757 14.6568 5.9462ZM14.1476 5.65056L14.407 5.52367C14.5294 5.46385 14.6224 5.39337 14.686 5.31234C14.75 5.23026 14.7798 5.13352 14.7753 5.02212C14.7712 4.90966 14.7292 4.778 14.649 4.62703C14.5689 4.47606 14.483 4.3666 14.3914 4.29871C14.2994 4.23011 14.1998 4.19708 14.0927 4.19955C13.9859 4.20102 13.8699 4.23235 13.7446 4.29364L13.4927 4.41682L14.1476 5.65056Z" fill="black"/>
<path d="M11.5179 4.92434L11.9936 4.58643L12.9349 5.80762C13.0437 5.94876 13.1035 6.09661 13.1143 6.25106C13.1246 6.40491 13.0892 6.555 13.0082 6.7012C12.9267 6.84687 12.8032 6.97847 12.6375 7.09618C12.4699 7.21518 12.3018 7.29078 12.1328 7.32305C11.9635 7.35467 11.804 7.34301 11.6544 7.28807C11.5043 7.23261 11.3748 7.13427 11.266 6.99314L10.3247 5.77194L10.8014 5.43331L11.7121 6.61477C11.7624 6.68006 11.8221 6.72782 11.8911 6.75802C11.9607 6.78776 12.0336 6.79794 12.1098 6.78858C12.1861 6.77922 12.2599 6.74925 12.3311 6.69861C12.4024 6.64803 12.4535 6.58933 12.4844 6.5225C12.5161 6.4552 12.5272 6.3853 12.518 6.3127C12.5087 6.2401 12.4789 6.17115 12.4285 6.1058L11.5179 4.92434Z" fill="black"/>
<path d="M8.66923 7.68188L8.3501 7.33566L9.9032 6.0166L10.2223 6.36282L9.66515 6.83605L10.9717 8.25379L10.5339 8.62563L9.22727 7.20794L8.66923 7.68188Z" fill="black"/>
<path d="M8.24155 8.40069C8.17427 8.34587 8.10103 8.32303 8.02191 8.33215C7.94278 8.34016 7.86188 8.38314 7.77932 8.46104C7.72461 8.51262 7.68603 8.56244 7.66358 8.61054C7.64113 8.65859 7.63309 8.70322 7.63947 8.7445C7.6453 8.78518 7.66364 8.82116 7.69443 8.85231C7.71903 8.87851 7.74681 8.89582 7.77779 8.90424C7.80938 8.91207 7.84379 8.9129 7.88114 8.90671C7.91849 8.89947 7.95867 8.88622 8.00179 8.86709C8.04491 8.84789 8.09054 8.82363 8.13881 8.79419L8.32282 8.68514C8.42789 8.62155 8.52885 8.57356 8.6257 8.5413C8.7231 8.5085 8.8156 8.49166 8.90319 8.49078C8.99127 8.48936 9.07474 8.50467 9.1535 8.53682C9.23226 8.56891 9.30635 8.61831 9.37578 8.68503C9.4838 8.79166 9.54912 8.90907 9.57169 9.03719C9.5942 9.16532 9.57439 9.29851 9.51214 9.43676C9.45043 9.57449 9.34671 9.71215 9.20085 9.84976C9.05444 9.98783 8.90533 10.0872 8.7534 10.1477C8.60154 10.2082 8.45144 10.2241 8.30313 10.1952C8.15488 10.1662 8.01271 10.087 7.87666 9.95739L8.28167 9.57531C8.34049 9.62618 8.40182 9.6571 8.46549 9.66793C8.52922 9.67876 8.59399 9.6714 8.65968 9.64597C8.72605 9.61994 8.7902 9.57767 8.85234 9.51908C8.90926 9.46532 8.95011 9.41227 8.97489 9.35992C9.00022 9.30699 9.01028 9.25717 9.00507 9.21054C8.99985 9.16385 8.98016 9.12328 8.946 9.08883C8.913 9.05769 8.87503 9.04026 8.83216 9.03666C8.78867 9.03254 8.73776 9.04185 8.67937 9.06469C8.62104 9.08642 8.55265 9.12028 8.47432 9.1662L8.24946 9.29774C8.0638 9.40732 7.8893 9.46603 7.72602 9.47386C7.56219 9.48116 7.41535 9.42086 7.2855 9.29292C7.17853 9.18952 7.11437 9.07105 7.09303 8.93751C7.07162 8.80397 7.09039 8.66642 7.14927 8.52487C7.20822 8.38332 7.30403 8.24995 7.4367 8.12477C7.57231 7.99688 7.71259 7.90803 7.85765 7.85828C8.00265 7.80746 8.14341 7.79563 8.27983 7.82277C8.41624 7.84997 8.53848 7.91521 8.64656 8.01861L8.24155 8.40069Z" fill="black"/>
<path d="M7.13053 12.2931L5.18408 10.8594L5.54505 10.4077L7.10943 11.5601L7.73083 10.7827L8.11289 11.0642L7.13053 12.2931Z" fill="black"/>
<path d="M6.14 13.863L5.85565 14.4105L4.0293 12.6485L4.38155 11.9702L6.94664 12.31L6.66222 12.8575L4.76263 12.5664L4.75411 12.5829L6.14 13.863ZM5.23793 13.5225L5.83234 12.378L6.23544 12.571L5.64103 13.7154L5.23793 13.5225Z" fill="black"/>
<path d="M3.52309 13.875L5.76445 14.8329L5.55983 15.2742L3.86909 15.5776L3.86277 15.5912L5.15636 16.1441L4.91518 16.6641L2.67383 15.7062L2.88139 15.2586L4.5655 14.9638L4.57378 14.9459L3.28241 14.394L3.52309 13.875Z" fill="black"/>
<path d="M5.81836 36.3889L7.76481 34.9551L8.12577 35.4067L6.17932 36.8405L5.81836 36.3889Z" fill="black"/>
<path d="M4.26709 34.2002L6.32474 32.9175L6.59879 33.3225L5.94298 34.849L5.95145 34.8615L7.13904 34.1211L7.46198 34.5985L5.40433 35.8813L5.12641 35.4705L5.78609 33.954L5.77498 33.9376L4.58941 34.6767L4.26709 34.2002Z" fill="black"/>
<path d="M4.40425 33.5012L3.97514 33.7111L3.03369 31.9373L3.4628 31.7275L3.80052 32.3638L5.5575 31.5044L5.8229 32.0045L4.06592 32.8638L4.40425 33.5012Z" fill="black"/>
<path d="M5.17978 30.7221L2.92137 31.6424L2.25293 30.1307L2.69621 29.9501L3.13292 30.9377L3.59607 30.749L3.19352 29.8386L3.63797 29.6575L4.04052 30.5679L4.50477 30.3788L4.06806 29.3911L4.51134 29.2104L5.17978 30.7221Z" fill="black"/>
<path d="M4.34028 28.7371L1.97045 29.3466L1.70812 28.4069C1.66061 28.2365 1.65159 28.0813 1.68105 27.9412C1.70961 27.8005 1.77385 27.6812 1.87383 27.5832C1.97307 27.4855 2.10369 27.4158 2.26569 27.3741C2.42999 27.3318 2.57925 27.3303 2.71339 27.3697C2.84679 27.4092 2.96128 27.4845 3.05679 27.5956C3.15155 27.707 3.22309 27.8493 3.27148 28.0226L3.43736 28.6169L2.9861 28.733L2.84871 28.2409C2.82552 28.158 2.79504 28.0916 2.75714 28.0418C2.71828 27.9915 2.67169 27.9578 2.61738 27.9408C2.56226 27.9241 2.49803 27.9251 2.42474 27.944C2.35145 27.9628 2.29494 27.9928 2.2552 28.034C2.21467 28.0754 2.19025 28.1273 2.18203 28.1898C2.17306 28.2524 2.18007 28.3248 2.20304 28.407L2.27868 28.678L4.18683 28.1872L4.34028 28.7371ZM2.8997 27.7349L3.82464 26.8898L3.99211 27.4896L3.06401 28.3236L2.8997 27.7349Z" fill="black"/>
<path d="M1.16421 24.7461L3.6143 24.6229L3.64061 25.1052L2.27771 26.1123L2.27854 26.1272L3.69257 26.0562L3.72366 26.6247L1.27357 26.7478L1.24684 26.2586L2.6079 25.262L2.60687 25.2424L1.19518 25.3134L1.16421 24.7461Z" fill="black"/>
<path d="M3.57032 23.7822L3.5759 24.394L1.11527 23.6199L1.1084 22.8621L3.55455 22.0469L3.56008 22.6586L1.72992 23.2272L1.73004 23.2456L3.57032 23.7822ZM2.6055 23.872L2.59391 22.5932L3.0443 22.5894L3.05595 23.8682L2.6055 23.872Z" fill="black"/>
<path d="M1.62399 22.0156L1.14551 21.9632L1.38024 19.9854L1.85873 20.0377L1.77451 20.7473L3.73372 20.9615L3.66754 21.5191L1.70833 21.3049L1.62399 22.0156Z" fill="black"/>
<path d="M1.60947 19.0498L4.01367 19.5194L3.89541 20.0772L1.49121 19.6076L1.60947 19.0498Z" fill="black"/>
<path d="M3.52486 16.6358C3.77849 16.7244 3.97575 16.8463 4.11664 17.0016C4.25747 17.1569 4.34334 17.3305 4.37425 17.5224C4.40547 17.7136 4.38351 17.9083 4.30838 18.1064C4.23299 18.3053 4.11897 18.4681 3.9663 18.5951C3.81364 18.7221 3.63171 18.8017 3.42059 18.834C3.20898 18.8653 2.9767 18.8368 2.72381 18.7484C2.47012 18.6598 2.27274 18.5382 2.13161 18.3836C1.99078 18.2284 1.90472 18.0551 1.87357 17.8639C1.84235 17.6727 1.86449 17.4777 1.93987 17.2789C2.01495 17.0807 2.12848 16.918 2.28041 16.7908C2.43265 16.6629 2.61463 16.5829 2.82655 16.5508C3.03841 16.5188 3.27118 16.5471 3.52486 16.6358ZM3.31749 17.1825C3.1674 17.1301 3.03282 17.1063 2.91365 17.1112C2.79478 17.1153 2.69425 17.1463 2.61199 17.2041C2.53005 17.2611 2.46884 17.3429 2.42841 17.4495C2.38824 17.5555 2.38033 17.6559 2.40468 17.7509C2.42903 17.8459 2.48515 17.932 2.57317 18.0092C2.66143 18.0858 2.78061 18.1502 2.9307 18.2027C3.08085 18.2552 3.2153 18.2793 3.33417 18.2751C3.45328 18.2702 3.554 18.2389 3.63625 18.1812C3.71844 18.1234 3.77966 18.0416 3.81983 17.9357C3.86025 17.8291 3.86816 17.7286 3.84357 17.6344C3.81922 17.5394 3.76291 17.4536 3.67465 17.3771C3.58663 17.2998 3.46764 17.235 3.31749 17.1825Z" fill="black"/>
<path d="M15.1318 38.1488L16.2266 36.041L16.9942 36.4084C17.1472 36.4816 17.2601 36.5674 17.3331 36.6657C17.4064 36.7634 17.4453 36.8664 17.4497 36.9747C17.4545 37.0824 17.4302 37.1877 17.3767 37.2906C17.3297 37.3812 17.274 37.4479 17.2098 37.4908C17.1462 37.5341 17.0785 37.5599 17.0063 37.5682C16.9349 37.5768 16.8634 37.5743 16.792 37.5607L16.7813 37.5813C16.8464 37.6176 16.9021 37.6726 16.9487 37.7462C16.9952 37.8199 17.0214 37.9061 17.0272 38.0048C17.033 38.1036 17.0071 38.2085 16.9494 38.3197C16.8945 38.4253 16.8201 38.5084 16.7262 38.5688C16.6324 38.6293 16.5187 38.6583 16.3851 38.6561C16.2515 38.6539 16.0982 38.6114 15.9252 38.5286L15.1318 38.1488ZM15.5154 38.0497L16.0428 38.3021C16.2165 38.3853 16.3565 38.412 16.463 38.3824C16.5704 38.3525 16.6482 38.2912 16.6963 38.1985C16.7334 38.1272 16.7487 38.0523 16.7421 37.9737C16.736 37.8945 16.7073 37.82 16.6562 37.7501C16.6053 37.6796 16.532 37.6213 16.4363 37.5755L15.8959 37.3169L15.5154 38.0497ZM16.0114 37.0946L16.5045 37.3306C16.5846 37.3689 16.6646 37.3884 16.7447 37.389C16.8254 37.3899 16.8989 37.372 16.9653 37.3353C17.0324 37.2988 17.0852 37.2436 17.1237 37.1695C17.1718 37.0769 17.179 36.9822 17.1453 36.8856C17.112 36.7882 17.0224 36.7047 16.8766 36.6349L16.3749 36.3947L16.0114 37.0946Z" fill="black"/>
<path d="M19.886 37.4417L20.1701 37.525L19.6952 39.0164C19.6461 39.1703 19.5646 39.2967 19.4504 39.3955C19.3373 39.4937 19.2013 39.5577 19.0423 39.5872C18.8837 39.616 18.7124 39.6034 18.5283 39.5494C18.3442 39.4953 18.1948 39.4138 18.08 39.3047C17.9655 39.195 17.8896 39.0688 17.8523 38.9264C17.816 38.7835 17.8223 38.635 17.8714 38.4811L18.3463 36.9897L18.6304 37.0732L18.1625 38.5424C18.1274 38.6524 18.1215 38.7577 18.1446 38.8583C18.1679 38.9581 18.2183 39.0463 18.2958 39.1228C18.3744 39.1987 18.479 39.2558 18.6095 39.2942C18.7401 39.3325 18.8601 39.3413 18.9695 39.3204C19.0791 39.2989 19.1722 39.2529 19.2489 39.1824C19.3267 39.1114 19.3831 39.021 19.4181 38.911L19.886 37.4417Z" fill="black"/>
<path d="M21.2608 37.864L20.7716 40.1719L20.4805 40.1151L20.9696 37.8071L21.2608 37.864Z" fill="black"/>
<path d="M21.793 40.3109L21.9641 37.9614L22.2605 37.9813L22.1077 40.0784L23.2454 40.1548L23.227 40.4072L21.793 40.3109Z" fill="black"/>
<path d="M24.7898 40.392L24.033 40.411L23.9688 38.0565L24.7591 38.0367C24.9971 38.0307 25.2019 38.0727 25.3737 38.1628C25.5455 38.252 25.6789 38.3833 25.7739 38.5565C25.869 38.729 25.9197 38.937 25.9264 39.1808C25.9331 39.4261 25.8934 39.6383 25.8071 39.8177C25.7209 39.9962 25.5921 40.1352 25.4206 40.2346C25.2492 40.3332 25.0389 40.3857 24.7898 40.392ZM24.323 40.1506L24.7637 40.1395C24.9665 40.1345 25.1336 40.0926 25.2648 40.0142C25.3961 39.9357 25.4926 39.8263 25.5543 39.686C25.616 39.5456 25.6442 39.3796 25.639 39.188C25.6338 38.9979 25.597 38.8351 25.5286 38.6996C25.4601 38.5632 25.3607 38.4599 25.2301 38.3895C25.0995 38.3184 24.9385 38.2853 24.7469 38.2901L24.2726 38.302L24.323 40.1506Z" fill="black"/>
<path d="M27.0711 37.8447L27.3488 40.1848L27.0536 40.2171L26.7759 37.8771L27.0711 37.8447Z" fill="black"/>
<path d="M29.7106 37.23L30.2833 39.5201L30.0038 39.5846L28.2541 38.086L28.2308 38.0914L28.6805 39.8895L28.3916 39.9561L27.8188 37.6659L28.0984 37.6015L29.8539 39.1035L29.8772 39.098L29.4264 37.2955L29.7106 37.23Z" fill="black"/>
<path d="M32.2988 36.8414C32.2362 36.7865 32.1703 36.7425 32.1013 36.7095C32.0326 36.6754 31.9613 36.6534 31.8875 36.6433C31.8143 36.6328 31.7395 36.6351 31.6631 36.6502C31.5866 36.6653 31.5098 36.6938 31.4327 36.7357C31.3062 36.8044 31.2096 36.8982 31.143 37.0172C31.0764 37.1362 31.0485 37.2734 31.0593 37.4287C31.0701 37.584 31.1278 37.7505 31.2324 37.928C31.337 38.1055 31.4563 38.2385 31.5901 38.327C31.7239 38.4155 31.8621 38.4624 32.0047 38.4678C32.1474 38.4731 32.2847 38.4399 32.4168 38.3682C32.5392 38.3017 32.6321 38.2182 32.6958 38.1176C32.7597 38.0159 32.7906 37.9048 32.7885 37.7844C32.7867 37.663 32.7488 37.5395 32.6748 37.4141L32.7635 37.3871L32.1213 37.7359L31.9915 37.5157L32.8047 37.074L32.9345 37.2942C33.034 37.463 33.083 37.6302 33.0815 37.7958C33.0806 37.9609 33.0348 38.1136 32.9439 38.2536C32.8534 38.3927 32.7233 38.5083 32.5537 38.6004C32.3646 38.7031 32.1733 38.7506 31.9798 38.743C31.7869 38.7349 31.6042 38.6739 31.4314 38.5598C31.2593 38.4454 31.1096 38.2801 30.9822 38.0639C30.8866 37.9018 30.8233 37.7437 30.7922 37.5897C30.7613 37.4347 30.7607 37.2887 30.7902 37.152C30.8198 37.0153 30.8772 36.8917 30.9624 36.781C31.0478 36.6704 31.1588 36.5779 31.2958 36.5035C31.4084 36.4423 31.523 36.4017 31.6396 36.3815C31.7565 36.3603 31.8707 36.3587 31.9821 36.3765C32.0939 36.3933 32.1997 36.4288 32.2995 36.483C32.3989 36.5364 32.4876 36.6076 32.5657 36.6964L32.2988 36.8414Z" fill="black"/>
<path d="M36.1902 34.1807L35.9592 34.3601C35.8918 34.307 35.8207 34.2696 35.7459 34.2479C35.6716 34.2257 35.5965 34.217 35.5204 34.2218C35.4445 34.2257 35.3703 34.2419 35.2979 34.2705C35.2255 34.2992 35.1576 34.3381 35.0943 34.3873C34.9788 34.4771 34.8979 34.5864 34.8515 34.7153C34.8056 34.8437 34.801 34.9838 34.8378 35.1358C34.8751 35.2873 34.9606 35.4423 35.0943 35.6008C35.228 35.7593 35.3681 35.8718 35.5147 35.9384C35.6619 36.0045 35.8058 36.0294 35.9461 36.013C36.0871 35.9961 36.2153 35.9428 36.3307 35.8531C36.3941 35.8039 36.4478 35.7483 36.4921 35.6862C36.5364 35.6242 36.5686 35.5582 36.5887 35.4883C36.609 35.4173 36.6155 35.3446 36.6083 35.2703C36.6013 35.1949 36.5779 35.1203 36.5383 35.0465L36.7691 34.8671C36.8307 34.9741 36.8697 35.0824 36.886 35.192C36.9024 35.3016 36.8984 35.4089 36.8738 35.5137C36.8487 35.6181 36.805 35.7167 36.7426 35.8096C36.6808 35.9021 36.6018 35.9857 36.5056 36.0605C36.343 36.1869 36.1663 36.2611 35.9753 36.2833C35.7843 36.3055 35.5933 36.2744 35.402 36.1903C35.2108 36.1062 35.0337 35.9675 34.8709 35.7745C34.708 35.5815 34.6037 35.3864 34.5577 35.1893C34.5116 34.9922 34.5197 34.8063 34.5821 34.6316C34.6443 34.457 34.7568 34.3064 34.9194 34.18C35.0156 34.1052 35.1172 34.0484 35.2243 34.0096C35.3319 33.9704 35.4418 33.9501 35.5538 33.9489C35.6652 33.947 35.7751 33.9652 35.8834 34.0033C35.9911 34.041 36.0934 34.1001 36.1902 34.1807Z" fill="black"/>
<path d="M38.6244 32.0839C38.8151 32.2518 38.9485 32.4298 39.0243 32.6182C39.1002 32.8066 39.1207 32.9916 39.086 33.1732C39.0513 33.3548 38.9633 33.5197 38.8219 33.6678C38.6806 33.8158 38.5172 33.9144 38.3317 33.9635C38.1463 34.0124 37.9525 34.0089 37.7504 33.9528C37.5483 33.8967 37.3519 33.7848 37.1611 33.6169C36.9703 33.4491 36.837 33.271 36.7612 33.0826C36.6853 32.8942 36.6647 32.7092 36.6994 32.5276C36.7342 32.346 36.8222 32.1812 36.9636 32.0331C37.1049 31.8849 37.2683 31.7864 37.4538 31.7374C37.6392 31.6884 37.8329 31.6919 38.035 31.748C38.2372 31.8042 38.4336 31.9161 38.6244 32.0839ZM38.4301 32.2874C38.2735 32.1496 38.1173 32.0585 37.9615 32.014C37.8063 31.969 37.6603 31.9648 37.5234 32.0015C37.3872 32.0376 37.2688 32.1082 37.1685 32.2133C37.0681 32.3185 37.0048 32.4381 36.9787 32.5721C36.9531 32.7056 36.9702 32.8449 37.03 32.99C37.0902 33.1345 37.1987 33.2757 37.3553 33.4134C37.512 33.5512 37.6679 33.6426 37.8231 33.6877C37.9789 33.7321 38.1249 33.7363 38.2612 33.7002C38.398 33.6636 38.5166 33.5927 38.617 33.4875C38.7174 33.3824 38.7803 33.2631 38.8059 33.1296C38.832 32.9956 38.8149 32.8562 38.7546 32.7118C38.695 32.5666 38.5868 32.4252 38.4301 32.2874Z" fill="black"/>
<path d="M38.0444 30.5695L38.2027 30.2649L40.3973 30.4209L40.4101 30.3962L38.9596 28.8075L39.1178 28.5029L41.3135 29.5538L41.1895 29.7926L39.5213 28.9941L39.5106 29.0147L40.8366 30.4719L40.7169 30.7024L38.7066 30.5626L38.6959 30.5832L40.3642 31.3816L40.2402 31.6204L38.0444 30.5695Z" fill="black"/>
<path d="M39.46 27.7132L39.5487 27.3836L41.7292 27.0982L41.7364 27.0715L39.9735 25.8071L40.0622 25.4775L42.4375 26.0672L42.368 26.3255L40.5633 25.8775L40.5573 25.8998L42.17 27.0604L42.1028 27.3097L40.1061 27.5743L40.1002 27.5966L41.9048 28.0446L41.8353 28.3029L39.46 27.7132Z" fill="black"/>
<path d="M40.2149 23.1874L40.2252 22.9023L41.8487 22.9567C42.0163 22.9624 42.1646 23.0053 42.2935 23.0856C42.4217 23.1651 42.5212 23.2746 42.592 23.4144C42.6621 23.554 42.6937 23.7162 42.687 23.9009C42.6803 24.0855 42.6369 24.2451 42.5569 24.3798C42.4761 24.5144 42.3688 24.6174 42.2352 24.6889C42.1008 24.7596 41.9497 24.7921 41.7821 24.7865L40.1587 24.7321L40.1691 24.447L41.7685 24.5007C41.8883 24.5047 41.9958 24.4829 42.091 24.4355C42.1854 24.388 42.2611 24.3185 42.3179 24.2268C42.374 24.1343 42.4045 24.0226 42.4092 23.8915C42.414 23.7605 42.3918 23.647 42.3425 23.551C42.2925 23.4549 42.222 23.3805 42.1313 23.3276C42.0398 23.2739 41.9341 23.245 41.8143 23.241L40.2149 23.1874Z" fill="black"/>
<path d="M40.0493 20.2722L42.4952 20.0874L42.5178 20.3626L40.7022 21.7871L40.7041 21.81L42.6246 21.6649L42.6479 21.9493L40.202 22.1341L40.1794 21.8589L41.9993 20.4294L41.9974 20.4065L40.0723 20.5519L40.0493 20.2722Z" fill="black"/>
<path d="M39.7046 19.2976L42.113 18.8481L42.1697 19.1281L39.7613 19.5776L39.7046 19.2976Z" fill="black"/>
<path d="M39.8859 18.7341L39.6367 18.8165L39.0376 17.1463L39.2868 17.064L39.538 17.7642L41.6086 17.0798L41.7053 17.3495L39.6347 18.0339L39.8859 18.7341Z" fill="black"/>
<path d="M10.8301 35.1758L13.4062 32.7617L14.0502 33.4094L11.3514 35.7941L10.8301 35.1758Z" fill="black"/>
<path d="M37.3579 10.4463L34.7817 12.8015L35.3951 13.302L37.9712 11.0057L37.3579 10.4463Z" fill="black"/>
<path d="M38.8393 16.9044L38.6848 16.6134L39.3963 15.5322L39.3833 15.5077L38.0539 15.4248L37.8994 15.1338L39.5871 15.2634L40.4879 14.8228L40.6228 15.0769L39.722 15.5175L38.8393 16.9044Z" fill="black"/>
</svg>
