<svg width="855" height="858" viewBox="0 0 855 858" fill="none" xmlns="http://www.w3.org/2000/svg">
<g id="Login Component/App_Icon">
<path id="Vector" d="M462.741 718.965C621.24 718.965 749.73 594.563 749.73 441.105C749.73 287.647 621.24 163.244 462.741 163.244C304.241 163.244 175.752 287.647 175.752 441.105C175.752 594.563 304.241 718.965 462.741 718.965Z" fill="black"/>
<path id="Vector_2" d="M343.886 338.379C298.431 386.429 275.086 425.012 269.095 438.296C290.894 485.448 328.038 526.426 343.886 541.02L449.405 438.296L343.886 338.379Z" fill="black"/>
<path id="Vector_3" d="M357.222 326.592C406.85 282.583 449.986 260.916 462.161 255.302C510.862 276.409 553.186 312.371 568.26 327.715L462.161 429.877L357.222 326.592Z" fill="white"/>
<path id="Vector_4" d="M277.79 249.693L345.044 315.369C375.192 283.485 424.473 256.803 445.345 247.447C353.509 211.971 295.377 234.163 277.79 249.693Z" fill="white"/>
<path id="Vector_5" d="M332.868 326.594L265.034 261.479C224.218 307.284 244.549 386.469 259.816 420.337L332.868 326.594Z" fill="white"/>
<path id="Vector_6" d="M594.927 214.886C523.962 210.396 478.392 228.358 464.477 237.901C411.602 210.059 356.253 208.712 335.188 211.518C447.432 156.283 555.116 190.749 594.927 214.886Z" fill="white"/>
<path id="Vector_7" d="M648.846 251.937C598.753 213.317 518.59 232.852 484.77 247.446C520.929 264.062 563.998 299.65 581.012 315.368L648.846 251.937Z" fill="white"/>
<path id="Vector_8" d="M407.079 504.539C504.481 565.724 585.65 458.509 528.832 388.904L498.104 416.971C521.295 471.308 473.174 486.576 438.967 474.227L407.079 504.539Z" fill="white"/>
<path id="Vector_9" d="M387.949 550.564L372.875 537.092L342.146 566.282C364.874 589.633 405.728 602.207 423.315 605.575C485.931 616.802 539.85 594.161 558.982 581.438C627.976 530.356 632.034 474.223 632.034 469.732C645.949 405.066 611.162 349.607 592.03 329.96L563.041 356.904L578.115 371.499L560.722 387.216L571.738 413.037H596.668V469.732H568.259L558.982 493.308L575.796 510.709L535.791 550.564L513.76 533.724L489.989 545.512V568.527H430.272V541.583L407.081 533.724L387.949 550.564Z" fill="white"/>
<path id="Vector_10" d="M330.548 553.372L262.715 616.803C223.29 566.956 244.355 490.129 259.816 457.945L330.548 553.372Z" fill="white"/>
<path id="Vector_11" d="M325.334 605.578L313.738 593.229L274.314 628.593C274.314 628.593 265.617 622.979 302.723 650.485C339.828 677.99 336.929 671.815 336.929 671.815L359.541 625.225L342.147 616.805L351.424 605.578L336.929 593.229L325.334 605.578Z" fill="white"/>
<path id="Vector_12" d="M426.214 698.195C390.5 692.806 363.405 682.851 354.322 678.548L377.513 630.835L392.587 640.377L399.545 625.221L415.778 630.835L414.039 645.429L433.172 647.675C430.853 676.415 427.568 693.33 426.214 698.195Z" fill="white"/>
<path id="Vector_13" d="M467.379 650.484H449.406L446.507 700.443C487.323 702.239 514.147 695.579 522.457 692.023C511.79 656.996 507.963 646.368 507.383 645.432L489.99 650.484L485.932 630.838L469.698 633.083L467.379 650.484Z" fill="white"/>
<path id="Vector_14" d="M542.748 635.887L525.935 640.378L538.69 690.898L610.582 658.34L578.694 617.363L562.46 628.028L552.604 612.311L537.53 618.486L542.748 635.887Z" fill="white"/>
<path id="Vector_15" d="M607.104 599.403L592.609 608.946L622.758 649.924C654.297 627.021 673.392 605.204 678.996 597.158L634.933 567.969L622.758 582.563L608.263 571.898L596.088 582.563L607.104 599.403Z" fill="white"/>
<path id="Vector_16" d="M655.225 541.023L645.368 555.617C657.93 565.348 683.866 584.807 687.112 584.807C709.839 553.372 719.386 526.054 721.319 516.324L669.139 503.413L663.341 521.376L645.368 516.324L638.411 529.235L655.225 541.023Z" fill="white"/>
<path id="Vector_17" d="M674.936 489.942L678.415 472.541L663.341 469.734C655.919 467.489 658.509 457.385 661.021 451.772H680.154V432.125L733.493 427.634C733.493 470.745 728.469 496.117 725.956 503.414L674.936 489.942Z" fill="white"/>
<path id="Vector_18" d="M652.325 387.219L658.123 401.252L678.415 399.007V415.847L731.754 413.04V411.356C728.044 376.329 717.454 349.235 712.622 340.067L664.5 360.275L670.298 378.237L652.325 387.219Z" fill="white"/>
<path id="Vector_19" d="M706.245 326.034L656.964 346.804L648.847 329.964L631.454 338.384C624.033 337.036 622.951 329.59 623.337 326.034L636.092 312.562L623.337 300.774L661.602 264.288C687.112 290.783 701.993 316.492 706.245 326.034Z" fill="white"/>
<path id="Vector_20" d="M249.38 439.984C224.333 479.951 221.551 539.34 223.29 564.039C165.312 456.712 200.293 353.538 225.029 315.368C220.855 372.399 239.524 422.209 249.38 439.984Z" fill="white"/>
<path id="Vector_21" d="M725.767 114.669L699.163 151.454L691.371 146.172L691.607 114.691L691.365 114.528L676.011 135.758L666.828 129.533L693.432 92.7478L701.334 98.1052L700.958 129.437L701.274 129.651L716.603 108.456L725.767 114.669Z" fill="black"/>
<path id="Vector_22" d="M672.061 107.466C669.588 111.787 666.632 114.989 663.195 117.073C659.758 119.155 656.128 120.19 652.302 120.177C648.491 120.17 644.77 119.193 641.138 117.245C637.494 115.288 634.662 112.74 632.645 109.601C630.627 106.464 629.616 102.937 629.612 99.0236C629.629 95.1055 630.87 90.9921 633.337 86.6833C635.811 82.361 638.76 79.1558 642.183 77.0654C645.62 74.9817 649.245 73.9432 653.056 73.95C656.868 73.9567 660.596 74.9379 664.24 76.8936C667.872 78.8426 670.7 81.3798 672.726 84.5064C674.764 87.6398 675.781 91.1683 675.777 95.0943C675.774 99.0203 674.536 103.144 672.061 107.466ZM662.039 102.086C663.503 99.53 664.363 97.1668 664.62 94.9989C664.892 92.8377 664.587 90.927 663.707 89.2677C662.839 87.6162 661.429 86.2657 659.474 85.2171C657.533 84.1752 655.604 83.7329 653.683 83.889C651.764 84.0461 649.923 84.8039 648.161 86.1646C646.411 87.532 644.804 89.4944 643.34 92.0519C641.876 94.6082 641.008 96.9681 640.738 99.1292C640.481 101.297 640.792 103.211 641.672 104.869C642.552 106.529 643.963 107.879 645.904 108.921C647.858 109.97 649.788 110.412 651.695 110.249C653.614 110.092 655.448 109.33 657.198 107.962C658.962 106.603 660.575 104.644 662.039 102.086Z" fill="black"/>
<path id="Vector_23" d="M572.991 51.1741L576.03 42.865L612.984 55.535L609.945 63.8441L596.688 59.2986L584.243 93.3203L573.826 89.7491L586.269 55.7268L572.991 51.1741Z" fill="black"/>
<path id="Vector_24" d="M631.301 63.2184L612.807 104.4L602.525 100.072L621.02 58.8904L631.301 63.2184Z" fill="black"/>
<path id="Vector_25" d="M526.557 77.0734L514.817 74.4497L540.499 34.1023L555.041 37.3529L559.856 84.5167L548.116 81.893L545.307 46.789L544.954 46.7101L526.557 77.0734ZM529.096 59.5033L553.635 64.9882L551.719 73.0217L527.181 67.5364L529.096 59.5033Z" fill="black"/>
<path id="Vector_26" d="M462.896 39.5707C462.803 37.9585 462.177 36.6868 461.016 35.7553C459.873 34.8098 458.206 34.3 456.018 34.226C454.57 34.1771 453.356 34.3189 452.377 34.6514C451.399 34.984 450.655 35.4635 450.15 36.09C449.644 36.7018 449.369 37.4166 449.324 38.2342C449.27 38.9052 449.384 39.5014 449.667 40.023C449.967 40.5451 450.403 41.0132 450.977 41.4276C451.567 41.8278 452.279 42.1883 453.114 42.509C453.947 42.8298 454.889 43.1176 455.937 43.3725L459.889 44.3837C462.165 44.9433 464.164 45.6545 465.886 46.5172C467.622 47.3804 469.067 48.3872 470.218 49.5378C471.386 50.6889 472.252 51.9982 472.819 53.4654C473.385 54.9326 473.643 56.565 473.594 58.3623C473.476 61.1961 472.65 63.6034 471.112 65.5846C469.576 67.566 467.414 69.0501 464.629 70.0392C461.859 71.0272 458.543 71.456 454.68 71.3258C450.803 71.1944 447.442 70.5186 444.601 69.296C441.759 68.0734 439.58 66.2884 438.064 63.9407C436.547 61.5929 435.829 58.6652 435.91 55.1575L446.639 55.5202C446.677 56.9696 447.034 58.1883 447.708 59.1766C448.383 60.1648 449.329 60.9281 450.549 61.4666C451.784 62.0057 453.223 62.303 454.868 62.3586C456.377 62.4097 457.666 62.2558 458.736 61.8971C459.822 61.5388 460.665 61.0188 461.263 60.337C461.861 59.6551 462.185 58.8616 462.232 57.9563C462.248 57.1084 462.003 56.3761 461.496 55.7593C460.99 55.1278 460.194 54.5744 459.108 54.0988C458.038 53.6092 456.665 53.1459 454.989 52.7089L450.185 51.4495C446.203 50.4226 443.094 48.8767 440.857 46.8119C438.62 44.7324 437.571 41.9909 437.709 38.5875C437.794 35.8112 438.652 33.4048 440.281 31.3683C441.91 29.3316 444.119 27.7755 446.908 26.6995C449.696 25.6237 452.848 25.1452 456.364 25.2641C459.955 25.3854 463.05 26.0825 465.647 27.3551C468.261 28.6136 470.261 30.3268 471.649 32.4946C473.036 34.6624 473.694 37.142 473.624 39.9334L462.896 39.5707Z" fill="black"/>
<path id="Vector_27" d="M477.57 36.2947L478.285 27.5071L517.367 30.4851L516.653 39.2725L502.632 38.2042L499.707 74.1846L488.689 73.3459L491.614 37.3647L477.57 36.2947Z" fill="black"/>
<path id="Vector_28" d="M375.184 41.1042L374.233 32.3378L413.221 28.3704L414.173 37.1367L400.185 38.56L404.083 74.4548L393.091 75.5729L389.194 39.6785L375.184 41.1042Z" fill="black"/>
<path id="Vector_29" d="M364.054 35.0547L375.666 78.5307L366.457 80.8366L341.885 60.2189L341.6 60.2903L348.302 85.3823L337.449 88.1003L325.836 44.624L335.177 42.2851L359.541 62.91L359.913 62.8167L353.222 37.7668L364.054 35.0547Z" fill="black"/>
<path id="Vector_30" d="M303.344 101.425L285.968 59.788L315.954 48.0583L319.364 56.2311L299.773 63.8949L303.337 72.4332L321.394 65.3695L324.814 73.5626L306.755 80.6264L310.326 89.1856L329.918 81.5223L333.328 89.6953L303.344 101.425Z" fill="black"/>
<path id="Vector_31" d="M277.08 113.371L261.805 120.907L240.747 80.8949L256.003 73.3686C260.214 71.2916 264.26 70.3037 268.144 70.4059C272.034 70.4889 275.595 71.6195 278.826 73.7997C282.05 75.9653 284.755 79.1267 286.942 83.2817C289.135 87.4491 290.194 91.439 290.115 95.2516C290.05 99.0563 288.912 102.513 286.702 105.622C284.484 108.718 281.277 111.3 277.08 113.371ZM267.454 107.735L272.358 105.315C274.672 104.175 276.43 102.831 277.634 101.286C278.843 99.721 279.406 97.8764 279.322 95.7523C279.244 93.608 278.449 91.0977 276.933 88.2192C275.419 85.3407 273.795 83.2537 272.063 81.9592C270.324 80.6513 268.442 80.0215 266.417 80.0687C264.398 80.0967 262.205 80.694 259.837 81.8627L255.074 84.2113L267.454 107.735Z" fill="black"/>
<path id="Vector_32" d="M217.741 93.8905L226.735 87.4475L244.53 110.732C246.586 113.423 247.717 116.242 247.921 119.186C248.116 122.12 247.447 124.982 245.916 127.769C244.375 130.547 242.04 133.056 238.908 135.3C235.74 137.569 232.56 139.011 229.367 139.626C226.165 140.229 223.149 140.006 220.321 138.959C217.484 137.901 215.037 136.026 212.98 133.335L195.185 110.051L204.197 103.595L221.412 126.121C222.364 127.366 223.493 128.277 224.796 128.853C226.112 129.42 227.491 129.614 228.932 129.435C230.373 129.257 231.768 128.685 233.116 127.72C234.462 126.755 235.429 125.636 236.014 124.362C236.612 123.079 236.823 121.746 236.648 120.362C236.473 118.978 235.909 117.663 234.957 116.417L217.741 93.8905Z" fill="black"/>
<path id="Vector_33" d="M163.887 146.47L157.854 139.869L187.215 114.719L193.248 121.32L182.714 130.343L207.415 157.375L199.137 164.464L174.436 137.434L163.887 146.47Z" fill="black"/>
<path id="Vector_34" d="M155.805 160.173C154.533 159.128 153.148 158.692 151.653 158.866C150.157 159.019 148.627 159.838 147.067 161.324C146.032 162.307 145.303 163.257 144.879 164.174C144.454 165.09 144.302 165.941 144.423 166.728C144.533 167.504 144.88 168.19 145.462 168.784C145.927 169.283 146.452 169.613 147.038 169.774C147.635 169.923 148.285 169.939 148.991 169.821C149.698 169.683 150.457 169.43 151.272 169.065C152.087 168.7 152.95 168.237 153.863 167.676L157.341 165.596C159.328 164.384 161.236 163.469 163.067 162.854C164.909 162.228 166.657 161.907 168.313 161.891C169.978 161.864 171.556 162.155 173.045 162.768C174.534 163.38 175.935 164.322 177.247 165.594C179.289 167.627 180.524 169.866 180.951 172.309C181.377 174.752 181.002 177.291 179.825 179.927C178.659 182.553 176.698 185.178 173.94 187.802C171.173 190.434 168.354 192.328 165.481 193.482C162.61 194.636 159.773 194.938 156.969 194.387C154.167 193.836 151.479 192.325 148.907 189.854L156.563 182.569C157.675 183.539 158.835 184.128 160.039 184.335C161.243 184.541 162.468 184.401 163.71 183.916C164.964 183.42 166.177 182.614 167.352 181.497C168.428 180.472 169.2 179.46 169.669 178.462C170.147 177.453 170.338 176.503 170.239 175.614C170.141 174.724 169.768 173.95 169.122 173.293C168.499 172.7 167.781 172.367 166.97 172.299C166.148 172.22 165.186 172.398 164.082 172.833C162.979 173.247 161.686 173.893 160.205 174.769L155.955 177.277C152.445 179.366 149.146 180.485 146.059 180.635C142.962 180.774 140.186 179.624 137.731 177.185C135.709 175.213 134.496 172.954 134.092 170.408C133.688 167.862 134.043 165.239 135.156 162.541C136.27 159.842 138.081 157.299 140.589 154.912C143.153 152.474 145.805 150.779 148.547 149.831C151.289 148.862 153.95 148.636 156.529 149.154C159.107 149.673 161.418 150.916 163.462 152.888L155.805 160.173Z" fill="black"/>
<path id="Vector_35" d="M134.801 234.39L98.0039 207.053L104.828 198.441L134.402 220.413L146.15 205.592L153.372 210.958L134.801 234.39Z" fill="black"/>
<path id="Vector_36" d="M116.076 264.325L110.701 274.765L76.1738 241.168L82.8331 228.236L131.326 234.714L125.949 245.154L90.0374 239.603L89.8762 239.917L116.076 264.325ZM99.0228 257.833L110.26 236.012L117.881 239.691L106.643 261.511L99.0228 257.833Z" fill="black"/>
<path id="Vector_37" d="M66.603 264.546L108.975 282.81L105.107 291.224L73.144 297.008L73.0246 297.268L97.4795 307.81L92.9202 317.725L50.5479 299.461L54.4718 290.927L86.3096 285.305L86.4661 284.965L62.0529 274.441L66.603 264.546Z" fill="black"/>
<path id="Vector_38" d="M109.999 693.818L146.796 666.48L153.62 675.091L116.823 702.429L109.999 693.818Z" fill="black"/>
<path id="Vector_39" d="M80.6689 652.082L119.568 627.625L124.749 635.347L112.351 664.451L112.511 664.691L134.963 650.574L141.068 659.677L102.168 684.135L96.9142 676.301L109.385 647.387L109.175 647.075L86.7624 661.166L80.6689 652.082Z" fill="black"/>
<path id="Vector_40" d="M83.2637 638.759L75.1515 642.761L57.3535 608.942L65.4657 604.941L71.8502 617.072L105.066 600.687L110.083 610.222L76.8676 626.607L83.2637 638.759Z" fill="black"/>
<path id="Vector_41" d="M97.9242 585.768L55.2295 603.314L42.5928 574.492L50.9729 571.047L59.2288 589.879L67.9846 586.281L60.3745 568.922L68.7766 565.47L76.3867 582.828L85.1634 579.222L76.9074 560.39L85.2874 556.946L97.9242 585.768Z" fill="black"/>
<path id="Vector_42" d="M82.0524 547.924L37.2513 559.545L32.292 541.627C31.3938 538.379 31.2232 535.419 31.7802 532.747C32.3201 530.065 33.5345 527.79 35.4246 525.923C37.3006 524.058 39.77 522.73 42.8327 521.935C45.9388 521.129 48.7604 521.101 51.2964 521.85C53.8183 522.604 55.9826 524.04 57.7882 526.159C59.5796 528.283 60.9321 530.996 61.8468 534.3L64.9829 545.632L56.4518 547.845L53.8546 538.462C53.4162 536.881 52.8399 535.615 52.1234 534.665C51.3888 533.706 50.508 533.065 49.4813 532.741C48.4393 532.421 47.225 532.441 45.8394 532.8C44.4539 533.16 43.3855 533.732 42.6344 534.517C41.868 535.306 41.4065 536.296 41.2511 537.487C41.0815 538.681 41.2139 540.061 41.6482 541.629L43.0782 546.796L79.1514 537.439L82.0524 547.924ZM54.8185 528.814L72.3043 512.7L75.4702 524.137L57.9248 540.039L54.8185 528.814Z" fill="black"/>
<path id="Vector_43" d="M22.0107 471.826L68.3291 469.478L68.8265 478.674L43.0613 497.876L43.077 498.16L69.8089 496.805L70.3966 507.644L24.0782 509.993L23.5728 500.664L49.3034 481.662L49.2839 481.29L22.5963 482.643L22.0107 471.826Z" fill="black"/>
<path id="Vector_44" d="M67.4991 453.446L67.6046 465.11L21.0869 450.35L20.957 435.902L67.2011 420.358L67.3054 432.023L32.7068 442.863L32.7091 443.214L67.4991 453.446ZM49.2594 455.157L49.0402 430.774L57.5548 430.703L57.7751 455.085L49.2594 455.157Z" fill="black"/>
<path id="Vector_45" d="M30.699 419.767L21.6533 418.769L26.0909 381.058L35.1366 382.056L33.5445 395.585L70.5829 399.671L69.3317 410.302L32.2934 406.217L30.699 419.767Z" fill="black"/>
<path id="Vector_46" d="M30.427 363.212L75.8779 372.166L73.6423 382.801L28.1914 373.849L30.427 363.212Z" fill="black"/>
<path id="Vector_47" d="M66.6356 317.185C71.4304 318.875 75.1595 321.2 77.823 324.16C80.4853 327.121 82.1087 330.432 82.6931 334.09C83.2833 337.737 82.8682 341.448 81.4477 345.226C80.0227 349.017 77.8671 352.123 74.9809 354.544C72.0948 356.965 68.6556 358.483 64.6644 359.099C60.664 359.696 56.2727 359.152 51.4919 357.467C46.696 355.777 42.9646 353.459 40.2964 350.512C37.6341 347.551 36.0073 344.248 35.4182 340.602C34.828 336.956 35.2466 333.238 36.6717 329.447C38.091 325.669 40.2373 322.567 43.1095 320.142C45.9875 317.703 49.4279 316.177 53.4342 315.566C57.4393 314.956 61.8397 315.494 66.6356 317.185ZM62.7152 327.61C59.8778 326.611 57.3337 326.158 55.0807 326.251C52.8335 326.329 50.933 326.92 49.3781 328.021C47.8289 329.108 46.6717 330.668 45.9075 332.702C45.148 334.721 44.9984 336.635 45.4588 338.447C45.9191 340.258 46.9801 341.9 48.6441 343.373C50.3127 344.832 52.5657 346.061 55.4031 347.062C58.2417 348.062 60.7834 348.522 63.0306 348.443C65.2825 348.349 67.1864 347.752 68.7414 346.652C70.2952 345.551 71.4524 343.99 72.2119 341.971C72.9761 339.938 73.1256 338.023 72.6607 336.226C72.2003 334.415 71.1359 332.779 69.4673 331.32C67.8033 329.847 65.5538 328.611 62.7152 327.61Z" fill="black"/>
<path id="Vector_48" d="M286.065 727.372L306.761 687.182L321.273 694.188C324.165 695.583 326.301 697.219 327.681 699.094C329.066 700.955 329.801 702.919 329.885 704.985C329.975 707.038 329.515 709.045 328.505 711.008C327.616 712.734 326.563 714.007 325.349 714.826C324.147 715.65 322.866 716.142 321.501 716.301C320.152 716.465 318.801 716.418 317.45 716.158L317.248 716.55C318.478 717.242 319.532 718.29 320.413 719.695C321.291 721.099 321.787 722.743 321.897 724.626C322.007 726.508 321.516 728.509 320.425 730.629C319.387 732.643 317.981 734.227 316.207 735.38C314.433 736.531 312.283 737.086 309.757 737.043C307.232 737.001 304.334 736.19 301.064 734.612L286.065 727.372ZM293.316 725.481L303.287 730.294C306.571 731.879 309.218 732.39 311.23 731.825C313.262 731.254 314.732 730.085 315.642 728.319C316.342 726.958 316.631 725.53 316.507 724.033C316.391 722.523 315.85 721.102 314.883 719.769C313.921 718.424 312.536 717.314 310.726 716.44L300.51 711.508L293.316 725.481ZM302.693 707.27L312.016 711.771C313.529 712.501 315.043 712.872 316.556 712.884C318.082 712.902 319.472 712.56 320.727 711.86C321.995 711.165 322.994 710.112 323.721 708.698C324.631 706.932 324.767 705.128 324.13 703.285C323.5 701.429 321.806 699.836 319.05 698.506L309.565 693.926L302.693 707.27Z" fill="black"/>
<path id="Vector_49" d="M375.939 713.889L381.31 715.479L372.332 743.914C371.404 746.848 369.862 749.259 367.704 751.141C365.566 753.015 362.994 754.234 359.99 754.797C356.991 755.346 353.751 755.105 350.272 754.076C346.792 753.045 343.967 751.49 341.797 749.411C339.633 747.319 338.197 744.914 337.492 742.198C336.806 739.473 336.925 736.642 337.853 733.707L346.831 705.272L352.202 706.863L343.356 734.877C342.694 736.974 342.581 738.982 343.017 740.899C343.458 742.803 344.411 744.484 345.877 745.942C347.362 747.39 349.339 748.479 351.808 749.21C354.277 749.941 356.545 750.108 358.612 749.711C360.684 749.3 362.444 748.423 363.895 747.08C365.365 745.726 366.431 744.001 367.093 741.904L375.939 713.889Z" fill="black"/>
<path id="Vector_50" d="M401.933 721.941L392.686 765.946L387.182 764.863L396.429 720.857L401.933 721.941Z" fill="black"/>
<path id="Vector_51" d="M411.995 768.596L415.23 723.799L420.833 724.179L417.945 764.164L439.453 765.62L439.105 770.432L411.995 768.596Z" fill="black"/>
<path id="Vector_52" d="M468.647 770.137L454.339 770.5L453.125 725.608L468.067 725.229C472.565 725.115 476.438 725.917 479.686 727.633C482.934 729.335 485.456 731.838 487.252 735.14C489.048 738.429 490.008 742.396 490.134 747.043C490.261 751.72 489.509 755.767 487.879 759.187C486.25 762.591 483.815 765.241 480.573 767.136C477.332 769.017 473.356 770.017 468.647 770.137ZM459.823 765.535L468.154 765.323C471.987 765.227 475.146 764.43 477.627 762.934C480.109 761.438 481.933 759.352 483.099 756.675C484.266 753.999 484.799 750.834 484.701 747.181C484.602 743.557 483.906 740.453 482.614 737.868C481.319 735.268 479.439 733.298 476.971 731.957C474.502 730.601 471.458 729.969 467.835 730.061L458.869 730.288L459.823 765.535Z" fill="black"/>
<path id="Vector_53" d="M511.772 721.569L517.023 766.188L511.442 766.803L506.191 722.186L511.772 721.569Z" fill="black"/>
<path id="Vector_54" d="M561.672 709.853L572.499 753.518L567.214 754.747L534.136 726.174L533.696 726.277L542.198 760.561L536.736 761.831L525.908 718.165L531.193 716.937L564.381 745.574L564.82 745.47L556.299 711.101L561.672 709.853Z" fill="black"/>
<path id="Vector_55" d="M610.602 702.44C609.419 701.392 608.173 700.554 606.869 699.924C605.57 699.275 604.223 698.855 602.827 698.662C601.444 698.462 600.03 698.506 598.585 698.794C597.139 699.082 595.687 699.625 594.228 700.424C591.837 701.735 590.012 703.523 588.753 705.792C587.494 708.061 586.966 710.676 587.17 713.637C587.374 716.599 588.465 719.772 590.443 723.156C592.421 726.541 594.675 729.077 597.205 730.764C599.735 732.452 602.348 733.347 605.044 733.449C607.741 733.55 610.337 732.918 612.833 731.549C615.147 730.283 616.905 728.69 618.108 726.771C619.316 724.832 619.901 722.715 619.86 720.419C619.826 718.104 619.11 715.75 617.712 713.359L619.388 712.843L607.247 719.494L604.793 715.296L620.168 706.874L622.621 711.073C624.502 714.292 625.429 717.479 625.4 720.636C625.383 723.785 624.517 726.695 622.799 729.366C621.087 732.017 618.628 734.221 615.422 735.977C611.847 737.935 608.23 738.841 604.572 738.696C600.926 738.542 597.471 737.379 594.204 735.203C590.952 733.022 588.121 729.87 585.713 725.747C583.906 722.657 582.708 719.642 582.12 716.706C581.537 713.75 581.526 710.968 582.083 708.362C582.642 705.755 583.728 703.397 585.339 701.288C586.952 699.178 589.052 697.415 591.642 695.997C593.77 694.83 595.936 694.056 598.141 693.67C600.351 693.266 602.509 693.235 604.616 693.575C606.73 693.896 608.729 694.572 610.616 695.605C612.495 696.624 614.173 697.98 615.649 699.674L610.602 702.44Z" fill="black"/>
<path id="Vector_56" d="M684.163 651.708L679.797 655.13C678.523 654.117 677.178 653.403 675.763 652.989C674.36 652.566 672.94 652.401 671.502 652.493C670.066 652.566 668.663 652.875 667.295 653.421C665.926 653.968 664.643 654.71 663.445 655.649C661.263 657.36 659.733 659.444 658.855 661.901C657.987 664.349 657.902 667.021 658.596 669.919C659.302 672.808 660.919 675.764 663.447 678.785C665.973 681.807 668.623 683.952 671.394 685.222C674.177 686.482 676.896 686.957 679.549 686.644C682.214 686.322 684.637 685.306 686.82 683.595C688.017 682.657 689.033 681.597 689.87 680.414C690.708 679.23 691.316 677.973 691.698 676.639C692.081 675.286 692.205 673.901 692.068 672.483C691.934 671.046 691.493 669.624 690.744 668.217L695.108 664.795C696.272 666.836 697.009 668.902 697.318 670.991C697.628 673.08 697.551 675.126 697.087 677.125C696.613 679.115 695.786 680.995 694.607 682.767C693.438 684.529 691.945 686.124 690.127 687.549C687.053 689.96 683.711 691.375 680.1 691.799C676.49 692.221 672.878 691.629 669.263 690.025C665.647 688.42 662.301 685.778 659.222 682.096C656.144 678.416 654.17 674.697 653.301 670.939C652.431 667.182 652.584 663.638 653.762 660.307C654.939 656.977 657.066 654.106 660.14 651.696C661.958 650.27 663.879 649.187 665.903 648.447C667.938 647.698 670.014 647.312 672.132 647.288C674.239 647.252 676.316 647.599 678.363 648.327C680.399 649.044 682.333 650.171 684.163 651.708Z" fill="black"/>
<path id="Vector_57" d="M730.183 611.735C733.79 614.935 736.311 618.33 737.744 621.922C739.178 625.514 739.567 629.041 738.91 632.504C738.254 635.966 736.59 639.11 733.917 641.933C731.246 644.757 728.157 646.636 724.65 647.571C721.145 648.505 717.482 648.438 713.661 647.368C709.84 646.298 706.127 644.164 702.52 640.964C698.914 637.764 696.393 634.369 694.96 630.776C693.527 627.185 693.137 623.657 693.793 620.195C694.45 616.733 696.114 613.589 698.786 610.766C701.459 607.941 704.548 606.063 708.054 605.128C711.559 604.194 715.222 604.261 719.043 605.331C722.863 606.401 726.577 608.535 730.183 611.735ZM726.511 615.615C723.551 612.987 720.597 611.251 717.652 610.402C714.717 609.543 711.958 609.463 709.371 610.163C706.794 610.851 704.557 612.197 702.66 614.202C700.762 616.207 699.567 618.487 699.073 621.043C698.589 623.588 698.913 626.244 700.042 629.01C701.181 631.765 703.231 634.457 706.192 637.084C709.154 639.71 712.101 641.454 715.036 642.313C717.982 643.16 720.741 643.241 723.318 642.552C725.905 641.854 728.146 640.502 730.044 638.497C731.941 636.492 733.131 634.217 733.616 631.672C734.109 629.117 733.786 626.461 732.646 623.706C731.518 620.938 729.473 618.242 726.511 615.615Z" fill="black"/>
<path id="Vector_58" d="M719.222 582.86L722.213 577.051L763.702 580.027L763.944 579.555L736.522 549.264L739.514 543.457L781.022 563.493L778.678 568.047L747.141 552.822L746.938 553.215L772.008 580.998L769.744 585.393L731.74 582.729L731.538 583.121L763.076 598.344L760.731 602.897L719.222 582.86Z" fill="black"/>
<path id="Vector_59" d="M745.981 528.399L747.659 522.115L788.88 516.674L789.017 516.164L755.689 492.056L757.367 485.772L802.272 497.016L800.957 501.941L766.839 493.398L766.726 493.823L797.214 515.952L795.944 520.707L758.197 525.751L758.085 526.175L792.201 534.717L790.886 539.643L745.981 528.399Z" fill="black"/>
<path id="Vector_60" d="M760.253 442.103L760.448 436.668L791.139 437.706C794.309 437.814 797.111 438.632 799.549 440.162C801.972 441.678 803.853 443.767 805.192 446.431C806.516 449.094 807.115 452.186 806.987 455.707C806.861 459.227 806.041 462.271 804.528 464.838C803.001 467.405 800.972 469.37 798.446 470.732C795.905 472.08 793.049 472.7 789.881 472.593L759.19 471.555L759.386 466.121L789.624 467.143C791.887 467.22 793.92 466.805 795.72 465.9C797.505 464.996 798.935 463.67 800.01 461.922C801.071 460.158 801.646 458.027 801.737 455.529C801.827 453.031 801.406 450.867 800.475 449.036C799.529 447.205 798.198 445.784 796.482 444.776C794.751 443.752 792.754 443.202 790.49 443.125L760.253 442.103Z" fill="black"/>
<path id="Vector_61" d="M757.12 386.526L803.36 383.003L803.786 388.249L769.463 415.411L769.499 415.847L805.805 413.081L806.246 418.503L760.006 422.026L759.579 416.779L793.985 389.523L793.949 389.086L757.554 391.859L757.12 386.526Z" fill="black"/>
<path id="Vector_62" d="M750.604 367.941L796.134 359.372L797.207 364.71L751.677 373.279L750.604 367.941Z" fill="black"/>
<path id="Vector_63" d="M754.035 357.194L749.323 358.765L737.998 326.92L742.709 325.35L747.458 338.701L786.602 325.652L788.43 330.793L749.286 343.842L754.035 357.194Z" fill="black"/>
<path id="Vector_64" d="M204.741 670.69L253.442 624.661L265.618 637.01L214.597 682.478L204.741 670.69Z" fill="black"/>
<path id="Vector_65" d="M706.243 199.171L657.542 244.078L669.138 253.621L717.839 209.837L706.243 199.171Z" fill="black"/>
<path id="Vector_66" d="M734.25 322.308L731.329 316.76L744.781 296.145L744.534 295.677L719.403 294.096L716.482 288.548L748.387 291.02L765.418 282.618L767.968 287.464L750.937 295.865L734.25 322.308Z" fill="black"/>
</g>
</svg>
